<?xml version="1.0" encoding="utf-8"?>
<!-- Generator: Adobe Illustrator 26.0.2, SVG Export Plug-In . SVG Version: 6.00 Build 0)  -->
<svg version="1.1" id="Layer_1" xmlns="http://www.w3.org/2000/svg" xmlns:xlink="http://www.w3.org/1999/xlink" x="0px" y="0px"
	 viewBox="0 0 100 50" style="enable-background:new 0 0 100 50;" xml:space="preserve">
<style type="text/css">
	.st0{fill:#45006D;}
</style>
<g>
	<g>
		<path class="st0" d="M47,18.3v2.9c1.3-0.7,2.8-1.1,4.4-1.1h0.5v4.9h-0.5c-2.5,0-4.4,1.9-4.4,4.4v8.6h-4.9V18.3H47z"/>
		<path class="st0" d="M64,20c5.1,0,9.3,4.1,9.3,9.3c0,5.1-4.2,9.3-9.3,9.3c-1.6,0-3.1-0.4-4.4-1.1v2.8h-4.9V14.6h4.9v6.5
			C60.9,20.5,62.4,20,64,20z M59.6,29.3c0,2.4,2,4.4,4.4,4.4s4.4-1.9,4.4-4.4c0-2.4-2-4.4-4.4-4.4S59.6,26.9,59.6,29.3z"/>
		<path class="st0" d="M79.4,19.3c-1.6,0-2.9-1.3-2.9-2.9c0-1.6,1.3-2.9,2.9-2.9c1.6,0,2.9,1.3,2.9,2.9C82.3,18,81,19.3,79.4,19.3z
			 M81.8,37.9h-4.9V20.8h4.9V37.9z"/>
		<path class="st0" d="M87,14.6h4.9v6.1H97v4.9h-5.1v3.9c0,2.3,1.9,4.2,4.4,4.2c0.3,0,0.4,0,0.7,0v4.9c-0.3,0-0.4,0-0.7,0
			c-5,0-9.3-3.9-9.3-9v-3.9h-2.4v-4.9H87V14.6z"/>
	</g>
	<path class="st0" d="M43.2,9.9c-1.9-1.1-6.7,0.3-12.5,3.5c-1.1-0.6-2.3-1.1-3.6-1.4c-7.9-1.8-15.7,3.1-17.5,10.9
		c-0.5,2-0.5,4-0.1,6c-6.2,6-9.1,11.1-6.7,12.4C4.5,42.4,9.2,41,15,38c1.6,1.1,3.4,2,5.4,2.5c7.9,1.8,15.7-3,17.6-10.9
		c0.7-2.9,0.4-5.7-0.5-8.3C42.9,15.7,45.4,11.2,43.2,9.9z M37.1,14.1c1.6,0.4,1.2,2.3-0.7,4.8c-0.9-1.6-2.1-3-3.6-4.2
		C34.7,14.1,36.2,13.9,37.1,14.1z M23.7,15.8c4.4,0,8.2,2.8,9.7,6.6c-1.4,1.5-3.2,3-5.2,4.7c-3.7,3-7.5,5.5-10.9,7.3
		c-2.4-1.9-4-4.9-4-8.2C13.4,20.5,18,15.8,23.7,15.8z M8.7,37.1c-1.7-0.5-1.1-2.7,1.3-5.7c0.7,1.9,1.8,3.5,3.1,5
		C11.3,37.1,9.7,37.3,8.7,37.1z M23.7,36.6c-1.6,0-3.1-0.4-4.5-1c3-1.9,6.3-4.1,9.4-6.5c1.9-1.5,3.7-3,5.3-4.4
		c0.1,0.5,0.1,1.1,0.1,1.6C34.1,31.9,29.5,36.6,23.7,36.6z"/>
</g>
</svg>
