<svg xmlns="http://www.w3.org/2000/svg" xmlns:xlink="http://www.w3.org/1999/xlink" viewBox="0 0 560 960"><defs><style>.cls-1,.cls-11,.cls-15,.cls-20,.cls-23,.cls-34,.cls-38,.cls-44,.cls-49,.cls-5{fill:none;}.cls-2,.cls-41{fill:#06bfb0;}.cls-3{fill:#29abe2;}.cls-4{fill:#0071bc;}.cls-5{stroke:#0071bc;}.cls-11,.cls-15,.cls-19,.cls-20,.cls-23,.cls-34,.cls-37,.cls-38,.cls-40,.cls-41,.cls-44,.cls-49,.cls-5{stroke-miterlimit:10;}.cls-6{clip-path:url(#clip-path);}.cls-37,.cls-7{fill:#fff;}.cls-8{clip-path:url(#clip-path-2);}.cls-9{fill:#ffe12c;}.cls-10{fill:#bd9b27;}.cls-11{stroke:#bd9b27;}.cls-12{fill:#5100ff;}.cls-13{fill:#9c3ecf;}.cls-14{fill:#662d91;}.cls-15{stroke:#662d91;}.cls-16{clip-path:url(#clip-path-3);}.cls-17{clip-path:url(#clip-path-4);}.cls-18{fill:#db6a95;}.cls-19,.cls-20{stroke:#000;}.cls-20,.cls-40,.cls-41{stroke-width:2px;}.cls-21{fill:#c1272d;}.cls-22{fill:#72c1dd;}.cls-23{stroke:#c1272d;}.cls-24{clip-path:url(#clip-path-5);}.cls-25{clip-path:url(#clip-path-6);}.cls-26{fill:#fcfced;}.cls-27{clip-path:url(#clip-path-7);}.cls-28{clip-path:url(#clip-path-8);}.cls-29{fill:#f15a24;}.cls-30{fill:#00a99d;}.cls-31{fill:#9e005d;}.cls-32{fill:#5ae0c5;}.cls-33{fill:#1a1a15;}.cls-34,.cls-40,.cls-41{stroke:#06bfb0;}.cls-35{clip-path:url(#clip-path-9);}.cls-36{clip-path:url(#clip-path-10);}.cls-37{stroke:#cc9e08;opacity:0.72;}.cls-38{stroke:#dba332;}.cls-39{fill:#f7c6ba;}.cls-40{fill:#c3ddda;}.cls-42{fill:#f15623;}.cls-43{fill:#f6891f;}.cls-44{stroke:#f15623;}.cls-45{clip-path:url(#clip-path-11);}.cls-46{clip-path:url(#clip-path-12);}.cls-47{fill:#b3e670;}.cls-48{fill:#8cc63f;}.cls-49{stroke:#00a99d;}.cls-50{clip-path:url(#clip-path-13);}.cls-51{clip-path:url(#clip-path-14);}.cls-52{fill:#877acf;}.cls-53{fill:#c7aaf0;}.cls-54{fill:#c58ade;}.cls-55{fill:#0e0f0f;}</style><clipPath id="clip-path"><rect class="cls-1" x="78.1" y="80.36" width="21.62" height="15.01"/></clipPath><clipPath id="clip-path-2"><rect class="cls-1" x="99.76" y="79.94" width="21.62" height="15.01" transform="translate(-3.32 4.37) rotate(-2.23)"/></clipPath><clipPath id="clip-path-3"><rect class="cls-1" x="200.1" y="78.32" width="20.91" height="16.2"/></clipPath><clipPath id="clip-path-4"><rect class="cls-1" x="221.35" y="74.92" width="20.91" height="16.2" transform="matrix(0.95, -0.31, 0.31, 0.95, -14.33, 76.35)"/></clipPath><clipPath id="clip-path-5"><rect class="cls-1" x="326.41" y="199.49" width="20.91" height="16.2"/></clipPath><clipPath id="clip-path-6"><rect class="cls-1" x="347.66" y="196.09" width="20.91" height="16.2" transform="translate(-45.79 121.74) rotate(-18.15)"/></clipPath><clipPath id="clip-path-7"><rect class="cls-1" x="206.12" y="199.82" width="20.91" height="16.2"/></clipPath><clipPath id="clip-path-8"><rect class="cls-1" x="227.36" y="196.42" width="20.91" height="16.2" transform="translate(-51.88 84.28) rotate(-18.15)"/></clipPath><clipPath id="clip-path-9"><rect class="cls-1" x="323.5" y="77.02" width="21.6" height="15.05"/></clipPath><clipPath id="clip-path-10"><rect class="cls-1" x="345.15" y="76.5" width="21.6" height="15.05" transform="translate(-3.58 16.93) rotate(-2.71)"/></clipPath><clipPath id="clip-path-11"><rect class="cls-1" x="452.06" y="236.46" width="20.81" height="14.72"/></clipPath><clipPath id="clip-path-12"><rect class="cls-1" x="437.64" y="219.3" width="14.72" height="20.81" transform="translate(-38.27 98.39) rotate(-12.1)"/></clipPath><clipPath id="clip-path-13"><rect class="cls-1" x="80.75" y="202.67" width="20.91" height="16.2"/></clipPath><clipPath id="clip-path-14"><rect class="cls-1" x="102" y="199.28" width="20.91" height="16.2" transform="translate(-59.01 45.36) rotate(-18.15)"/></clipPath></defs><g id="Layer_2" data-name="Layer 2"><path class="cls-2" d="M370.94,78.43c1.17-.93,2.33-1.85,3.58-2.82-.94-1.76-1.16-1.16-3-4.43-.1-.16-.83-2.06-.66-2.14,1-.47,3.31,1.29,3.74,1.64,3.14,2.54,4.57,5.29,6.41,8.89.25.5,1.21,2.53.93,3-.51.91-1.49.13-1.89-.26a51.38,51.38,0,0,1-4.35-5S373,79.53,372,80.6A6.28,6.28,0,0,0,370.94,78.43Z"/><path class="cls-3" d="M81.19,77.87a150.36,150.36,0,0,1,30.9-2.27A32.49,32.49,0,0,1,121.4,77a17.32,17.32,0,0,1,10.25,9.41,14.94,14.94,0,0,1-1.09,13.72,43.61,43.61,0,0,0-3,4.44,16.62,16.62,0,0,0-1.24,5.68,35.06,35.06,0,0,0-.24,6.63c.29,3.19,1.45,6.23,2,9.39.79,4.63,5.62,12.22,2.59,15.81-2.24,2.65-11.08,1.75-14.46,2.53a49.15,49.15,0,0,1-10.36.86,4.58,4.58,0,0,1-3.36-.87,4.48,4.48,0,0,1-1-2.39l-1.81-8.77L97,141.67a6,6,0,0,1-1.07,2.19,5.13,5.13,0,0,1-3.21,1.37,40.47,40.47,0,0,1-10.65-.38c-3.8-.48-8.22-1.37-9.87-4.82-.86-1.77-.75-3.84-.62-5.8l.64-9.73c.39-5.9.54-12.52-3.47-16.87-1.88-2-4.47-3.29-6.44-5.24C58.84,99,57.21,93.29,59.42,89,64.08,79.93,74.44,79,81.19,77.87Z"/><path class="cls-3" d="M492,40a1,1,0,1,0,0,1.9A1,1,0,1,0,492,40Z"/><path class="cls-4" d="M124.79,112.47l2.94,3.41a1.44,1.44,0,0,1,.44.84,2,2,0,0,1-.24.75c-.5,1.27.17,2.67.83,3.87a.67.67,0,0,0,.31.35.59.59,0,0,0,.48-.07c.94-.49,1.19-1.71,1.28-2.77s.23-2.28,1.1-2.89a6.06,6.06,0,0,1,2.25-.61,4.38,4.38,0,0,0,1.85-.9,1,1,0,0,0,.4-.57.89.89,0,0,0-.1-.5,3,3,0,0,0-3.15-1.71,6,6,0,0,1-2.24.36,3,3,0,0,1-1.12-.66l-2.77-2.24C126.19,110.18,125,112.58,124.79,112.47Z"/><path class="cls-4" d="M73.45,114.54l-2.56,3.7a1.42,1.42,0,0,1-.71.64,2.06,2.06,0,0,1-.78,0c-1.36-.17-2.54.83-3.54,1.77a.68.68,0,0,0-.26.39.57.57,0,0,0,.18.44c.72.8,2,.72,3,.55s2.26-.35,3.08.34a6.11,6.11,0,0,1,1.15,2,4.51,4.51,0,0,0,1.34,1.57.77.77,0,0,0,1.11,0,3,3,0,0,0,.87-3.48c-.31-.7-.9-1.31-.92-2.07a3,3,0,0,1,.36-1.26l1.47-3.24C76,115.32,73.41,114.8,73.45,114.54Z"/><path class="cls-5" d="M80.61,98a12.59,12.59,0,0,0,9.32,3.17,28.92,28.92,0,0,0,9.61-2.52l3.24.83a36,36,0,0,0,5.13,1.07,18.73,18.73,0,0,0,10.7-2"/><g class="cls-6"><path d="M98.4,83.93c-3.6-4.27-5.15-3.69-8.66-3.3a15.17,15.17,0,0,0-9.14,4.94c-1.57,1.66-2.95,3.92-2.36,6.13a5.35,5.35,0,0,0,4.38,3.55,13.87,13.87,0,0,0,5.88-.61c3.31-.88,6.67-2.06,9.19-4.39a6.25,6.25,0,0,0,1.89-2.82A2.4,2.4,0,0,0,99,84.9,11,11,0,0,0,98.4,83.93Z"/><path class="cls-7" d="M82.58,87.84c.38.8,2.37-1.35,4.77-2.49s4.3-.85,3.92-1.65-2.64-.52-5,.62S82.2,87,82.58,87.84Z"/></g><g class="cls-8"><path d="M100.93,83.88c3.43-4.4,5-3.89,8.53-3.64a15.27,15.27,0,0,1,9.32,4.59c1.64,1.6,3.1,3.8,2.6,6a5.37,5.37,0,0,1-4.24,3.72,13.74,13.74,0,0,1-5.9-.38c-3.35-.76-6.75-1.8-9.35-4a6.12,6.12,0,0,1-2-2.75,2.4,2.4,0,0,1,.49-2.55C100.43,84.81,100.76,84.11,100.93,83.88Z"/><path class="cls-7" d="M116.89,87.17c-.35.81-2.42-1.25-4.86-2.3s-4.33-.68-4-1.49,2.61-.63,5,.42S117.24,86.35,116.89,87.17Z"/></g><path class="cls-4" d="M107.69,75.91c-.16-1.48-.31-3-.47-4.53-2-.15-1.6.36-5.37.21-.19,0-2.18-.4-2.16-.59.11-1.07,2.86-2.11,3.38-2.29,3.82-1.3,6.91-1,10.93-.68.56,0,2.8.33,3.06.82.5.92-.69,1.33-1.23,1.46a51.68,51.68,0,0,1-6.59,1s.48,3.46.86,4.87A6.24,6.24,0,0,0,107.69,75.91Z"/><path class="cls-4" d="M82.83,78.08c-.16-1.48-.31-3-.47-4.53-2-.15-1.6.36-5.37.21-.19,0-2.18-.4-2.16-.59.11-1.06,2.86-2.11,3.38-2.29,3.82-1.29,6.91-1,10.93-.68.56,0,2.8.33,3.06.82.5.93-.69,1.34-1.23,1.46a49.71,49.71,0,0,1-6.59,1s.48,3.46.86,4.87A6.24,6.24,0,0,0,82.83,78.08Z"/><path class="cls-3" d="M457.31,70.56a151.28,151.28,0,0,1,30.93-2,33.09,33.09,0,0,1,9.29,1.53,17.34,17.34,0,0,1,10.16,9.52,15,15,0,0,1-1.22,13.71,42.64,42.64,0,0,0-3.09,4.41,16.81,16.81,0,0,0-1.3,5.67,35,35,0,0,0-.3,6.63c.26,3.18,1.38,6.24,1.89,9.4.74,4.64,0,9.74-3.08,13.29a16.31,16.31,0,0,1-9,4.93,49.15,49.15,0,0,1-10.36.76,4.59,4.59,0,0,1-3.36-.9,4.51,4.51,0,0,1-1-2.41l-1.73-8.78-2.71,8.17a6,6,0,0,1-1.08,2.18,5.17,5.17,0,0,1-3.23,1.33,40.5,40.5,0,0,1-10.65-.48c-3.79-.52-8.2-1.45-9.82-4.92-.84-1.78-.7-3.85-.56-5.81l.74-9.72c.45-5.89.66-12.52-3.31-16.9-1.86-2.06-4.43-3.34-6.39-5.3-3.41-3.43-5-9.15-2.73-13.44C440.19,72.45,450.56,71.6,457.31,70.56Z"/><path class="cls-9" d="M457.31,70.56a151.28,151.28,0,0,1,30.93-2,33.09,33.09,0,0,1,9.29,1.53,17.34,17.34,0,0,1,10.16,9.52,15,15,0,0,1-1.22,13.71,42.64,42.64,0,0,0-3.09,4.41,16.81,16.81,0,0,0-1.3,5.67,35,35,0,0,0-.3,6.63c.26,3.18,1.38,6.24,1.89,9.4.74,4.64,0,9.74-3.08,13.29a16.31,16.31,0,0,1-9,4.93,49.15,49.15,0,0,1-10.36.76,4.59,4.59,0,0,1-3.36-.9,4.51,4.51,0,0,1-1-2.41l-1.73-8.78-2.71,8.17a6,6,0,0,1-1.08,2.18,5.17,5.17,0,0,1-3.23,1.33,40.5,40.5,0,0,1-10.65-.48c-3.79-.52-8.2-1.45-9.82-4.92-.84-1.78-.7-3.85-.56-5.81l.74-9.72c.45-5.89.66-12.52-3.31-16.9-1.86-2.06-4.43-3.34-6.39-5.3-3.41-3.43-5-9.15-2.73-13.44C440.19,72.45,450.56,71.6,457.31,70.56Z"/><path class="cls-10" d="M499.59,105.19l4.37,1.06a1.36,1.36,0,0,1,.85.42,1.9,1.9,0,0,1,.25.75c.34,1.32,1.7,2.07,2.93,2.66a.68.68,0,0,0,.46.1.63.63,0,0,0,.35-.33c.48-.95,0-2.09-.58-3s-1.14-2-.8-3a6,6,0,0,1,1.47-1.8,4.54,4.54,0,0,0,1-1.82.77.77,0,0,0-.38-1,3,3,0,0,0-3.56.45c-.54.54-.9,1.31-1.6,1.6a2.86,2.86,0,0,1-1.3.12l-3.56-.2C499.39,102.52,499.85,105.14,499.59,105.19Z"/><path class="cls-10" d="M450.92,106.07l-4.49-.24a1.44,1.44,0,0,1-.92-.26,2.11,2.11,0,0,1-.38-.69c-.56-1.24-2-1.73-3.36-2.09a.69.69,0,0,0-.47,0,.58.58,0,0,0-.28.39c-.3,1,.41,2,1.11,2.85s1.48,1.74,1.33,2.79a6.11,6.11,0,0,1-1.12,2,4.44,4.44,0,0,0-.63,2,.76.76,0,0,0,.56,1,3,3,0,0,0,3.42-1.08c.43-.63.65-1.46,1.29-1.87a3,3,0,0,1,1.25-.36l3.53-.44C451.6,108.67,450.67,106.18,450.92,106.07Z"/><path class="cls-11" d="M456.52,92.17A12.58,12.58,0,0,0,466,94.68a28.74,28.74,0,0,0,9.4-3.19l3.29.61a39.71,39.71,0,0,0,5.19.71,18.88,18.88,0,0,0,10.54-2.74"/><path class="cls-10" d="M483.84,68.86c-.15-1.48-.29-3-.43-4.53-2-.18-1.6.34-5.37.15-.19,0-2.18-.42-2.16-.61.12-1.06,2.88-2.08,3.41-2.25,3.83-1.26,6.92-1,10.93-.57.56.05,2.79.35,3,.84.49.93-.7,1.33-1.24,1.45a50.11,50.11,0,0,1-6.6.93s.45,3.46.81,4.88A6.24,6.24,0,0,0,483.84,68.86Z"/><path class="cls-10" d="M459,70.79c-.15-1.48-.29-3-.43-4.54-2-.17-1.6.35-5.37.16C453,66.4,451,66,451,65.8c.12-1.06,2.88-2.08,3.41-2.25,3.83-1.26,6.92-1,10.93-.58.56.06,2.79.36,3.05.85.49.93-.7,1.33-1.24,1.45a52.12,52.12,0,0,1-6.6.93s.45,3.46.81,4.87A6.42,6.42,0,0,0,459,70.79Z"/><path class="cls-12" d="M201.43,77.5A150.66,150.66,0,0,1,231.73,71a32.67,32.67,0,0,1,9.42.14A17.31,17.31,0,0,1,252.6,79a15,15,0,0,1,.82,13.74A43.18,43.18,0,0,0,251,97.56a16.6,16.6,0,0,0-.45,5.8,34.79,34.79,0,0,0,.69,6.6c.73,3.11,2.29,6,3.26,9,1.42,4.47,2.78,11.63.27,15.6-1.85,2.94-6.25,3-9.49,4.2a48.54,48.54,0,0,1-10.14,2.29c-1.18.18-2.5.33-3.45-.39a4.42,4.42,0,0,1-1.33-2.23l-3-8.43-1.47,8.47a5.82,5.82,0,0,1-.75,2.32,5.14,5.14,0,0,1-3,1.8,40,40,0,0,1-10.6,1.1c-3.83,0-8.32-.22-10.44-3.41a11.54,11.54,0,0,1-1.41-5.66l-.71-9.72c-.44-5.9-1.21-12.48-5.78-16.22-2.14-1.76-4.88-2.65-7.1-4.3-3.89-2.89-6.3-8.31-4.7-12.88C184.78,81.9,194.91,79.52,201.43,77.5Z"/><path class="cls-13" d="M201.43,77.5A150.66,150.66,0,0,1,231.73,71a32.67,32.67,0,0,1,9.42.14A17.31,17.31,0,0,1,252.6,79a15,15,0,0,1,.82,13.74A43.18,43.18,0,0,0,251,97.56a16.6,16.6,0,0,0-.45,5.8,34.79,34.79,0,0,0,.69,6.6c.73,3.11,2.29,6,3.26,9,1.42,4.47,2.78,11.63.27,15.6-1.85,2.94-6.25,3-9.49,4.2a48.54,48.54,0,0,1-10.14,2.29c-1.18.18-2.5.33-3.45-.39a4.42,4.42,0,0,1-1.33-2.23l-3-8.43-1.47,8.47a5.82,5.82,0,0,1-.75,2.32,5.14,5.14,0,0,1-3,1.8,40,40,0,0,1-10.6,1.1c-3.83,0-8.32-.22-10.44-3.41a11.54,11.54,0,0,1-1.41-5.66l-.71-9.72c-.44-5.9-1.21-12.48-5.78-16.22-2.14-1.76-4.88-2.65-7.1-4.3-3.89-2.89-6.3-8.31-4.7-12.88C184.78,81.9,194.91,79.52,201.43,77.5Z"/><path class="cls-14" d="M248.33,111.31l2.91-3.44a1.42,1.42,0,0,1,.77-.56,1.85,1.85,0,0,1,.77.11c1.33.3,2.61-.58,3.69-1.41a.74.74,0,0,0,.31-.37.62.62,0,0,0-.15-.46c-.63-.86-1.88-.9-2.94-.83s-2.28.12-3-.64a6.15,6.15,0,0,1-.95-2.13,4.5,4.5,0,0,0-1.18-1.69,1,1,0,0,0-.62-.3,1,1,0,0,0-.48.17,3,3,0,0,0-1.2,3.38,6.1,6.1,0,0,1,.71,2.16,3,3,0,0,1-.48,1.21l-1.78,3.08C245.85,110.28,248.4,111.05,248.33,111.31Z"/><path class="cls-14" d="M201.61,114.23l-4-2.1a1.4,1.4,0,0,1-.72-.63,2,2,0,0,1-.06-.78c0-1.37-1.12-2.43-2.17-3.3a.67.67,0,0,0-.42-.22.57.57,0,0,0-.42.24c-.7.8-.48,2-.19,3s.62,2.2,0,3.09a5.94,5.94,0,0,1-1.87,1.39,4.4,4.4,0,0,0-1.4,1.51,1,1,0,0,0-.16.68,1,1,0,0,0,.27.43,3,3,0,0,0,3.56.45c.66-.39,1.2-1.05,1.95-1.16a3,3,0,0,1,1.29.21l3.39,1.08C201.14,116.87,201.35,114.22,201.61,114.23Z"/><path class="cls-15" d="M203.65,97.49a12.57,12.57,0,0,0,9.67,1.85,28.8,28.8,0,0,0,9.16-3.83l3.33.38a39.68,39.68,0,0,0,5.22.35,18.85,18.85,0,0,0,10.33-3.46"/><g class="cls-16"><path d="M219.32,81.12c-4.16-3.74-5.61-3-9-2.08a15.28,15.28,0,0,0-8.36,6.16c-1.33,1.86-2.38,4.29-1.49,6.4a5.37,5.37,0,0,0,4.83,2.91A13.66,13.66,0,0,0,211,93.09c3.16-1.33,6.32-3,8.49-5.62A6.14,6.14,0,0,0,221,84.41,2.38,2.38,0,0,0,220,82,9.89,9.89,0,0,0,219.32,81.12Z"/><path class="cls-7" d="M204.19,87.17c.49.74,2.17-1.66,4.39-3.12s4.13-1.43,3.64-2.17-2.68-.16-4.9,1.31S203.7,86.43,204.19,87.17Z"/></g><g class="cls-17"><path d="M221.82,80.71c2.79-4.83,4.42-4.54,7.94-4.78a15.24,15.24,0,0,1,9.87,3.25c1.84,1.35,3.6,3.33,3.41,5.61a5.37,5.37,0,0,1-3.69,4.27,13.74,13.74,0,0,1-5.89.44c-3.42-.28-6.93-.84-9.82-2.69a6.11,6.11,0,0,1-2.36-2.45,2.37,2.37,0,0,1,.14-2.59A10.67,10.67,0,0,1,221.82,80.71Z"/><path class="cls-7" d="M238.08,81.76c-.23.85-2.57-.9-5.13-1.6s-4.38-.08-4.15-.93,2.5-1,5.07-.28S238.32,80.9,238.08,81.76Z"/></g><path class="cls-14" d="M228.68,71.66c-.73-1.3-1.45-2.6-2.21-4-1.89.64-1.33,1-4.86,2.29a7.27,7.27,0,0,1-2.22.31c-.31-1,1.81-3.06,2.22-3.43,3-2.69,6-3.66,9.8-4.89.53-.18,2.7-.8,3.14-.45.81.66-.12,1.5-.57,1.83a50.58,50.58,0,0,1-5.68,3.48s1.8,3,2.69,4.15A6.35,6.35,0,0,0,228.68,71.66Z"/><path class="cls-14" d="M202.18,77.43c-.09-1.49-.17-3-.26-4.55-2-.25-1.61.28-5.37,0-.19,0-2.16-.51-2.13-.69.16-1.06,3-2,3.48-2.13,3.88-1.12,7-.72,11-.16.55.07,2.77.45,3,1,.45.94-.75,1.3-1.3,1.4a50.29,50.29,0,0,1-6.62.68s.31,3.47.62,4.9A6.19,6.19,0,0,0,202.18,77.43Z"/><path class="cls-18" d="M327.75,198.67A150.56,150.56,0,0,1,358,192.13a32.31,32.31,0,0,1,9.42.14,17.29,17.29,0,0,1,11.45,7.9,15,15,0,0,1,.83,13.74,41.59,41.59,0,0,0-2.4,4.82,16.6,16.6,0,0,0-.44,5.8,35.61,35.61,0,0,0,.68,6.6c.73,3.11,2.3,6,3.26,9,1.42,4.48,3.3,7.28,2.84,15.11-.18,3.06-8.81,3.46-12.06,4.7a48.4,48.4,0,0,1-10.14,2.29,4.56,4.56,0,0,1-3.44-.39,4.51,4.51,0,0,1-1.34-2.23l-3-8.43-1.48,8.47a6,6,0,0,1-.74,2.32,5.2,5.2,0,0,1-3,1.8,41,41,0,0,1-10.6,1.1c-3.83.05-8.33-.22-10.44-3.41-1.09-1.64-1.27-3.7-1.42-5.66l-.71-9.72c-.43-5.9-1.2-12.48-5.78-16.23-2.14-1.75-4.88-2.64-7.1-4.29-3.88-2.89-6.29-8.31-4.7-12.88C311.09,203.07,321.22,200.69,327.75,198.67Z"/><path class="cls-19" d="M244.61,70.42A6.08,6.08,0,0,1,248.79,66a14,14,0,0,1,6.37-.3c4.13.57,10,8.79,9.83,10a18.65,18.65,0,0,1-8,12.73A20.42,20.42,0,0,0,244.61,70.42Z"/><path class="cls-19" d="M189,81.38a6.09,6.09,0,0,0-4.83-3.77,13.83,13.83,0,0,0-6.33.7c-4,1.19-8.53,10.22-8.18,11.34A18.62,18.62,0,0,0,179.48,101,20.4,20.4,0,0,1,189,81.38Z"/><path class="cls-20" d="M172.3,86c5.71-17.36,23.61-28,41.39-32.22,8.77-2.08,13.5-2,22.21.32s21.59,14.73,21.59,14.73,3.15.89,3.22.9"/><path class="cls-21" d="M325,238.42l-4.35,1.12a1.42,1.42,0,0,1-.95,0,2,2,0,0,1-.57-.55c-.92-1-2.47-1-3.83-1a.72.72,0,0,0-.46.12.63.63,0,0,0-.15.46c0,1.07,1,1.83,1.92,2.38s1.93,1.22,2.1,2.27a5.94,5.94,0,0,1-.45,2.28,4.48,4.48,0,0,0,0,2.06,1,1,0,0,0,.33.61.84.84,0,0,0,.49.13A3,3,0,0,0,322,246.3a6,6,0,0,1,.66-2.17,2.94,2.94,0,0,1,1.09-.71l3.24-1.49"/><path class="cls-22" d="M207.45,199a150.71,150.71,0,0,1,30.29-6.54,33,33,0,0,1,9.42.14,17.31,17.31,0,0,1,11.46,7.9,15,15,0,0,1,.82,13.75,42.27,42.27,0,0,0-2.4,4.81,16.84,16.84,0,0,0-.44,5.8,34.79,34.79,0,0,0,.69,6.6c.73,3.11,2.29,6,3.26,9,1.41,4.48,3.66,11.63,1.16,15.61-1.86,2.93-10.38,4.2-10.38,4.2s-6.71,1.76-10.14,2.28a4.58,4.58,0,0,1-3.45-.38,4.49,4.49,0,0,1-1.33-2.24l-3-8.43L231.93,260a5.82,5.82,0,0,1-.75,2.31,5.12,5.12,0,0,1-3,1.8,40.05,40.05,0,0,1-10.6,1.1c-3.83.06-8.32-.22-10.44-3.41-1.09-1.63-1.27-3.7-1.41-5.66l-.71-9.72c-.44-5.89-1.21-12.48-5.78-16.22-2.15-1.76-4.88-2.65-7.11-4.3-3.88-2.89-6.29-8.31-4.69-12.88C190.8,203.4,200.92,201,207.45,199Z"/><path class="cls-21" d="M376,230l4.14,1.74a1.45,1.45,0,0,1,.78.56,2,2,0,0,1,.12.78c.11,1.36,1.34,2.31,2.46,3.09a.69.69,0,0,0,.44.18.57.57,0,0,0,.39-.27c.63-.87.3-2.07-.08-3.06s-.81-2.14-.3-3.08c.37-.69,1.13-1.05,1.74-1.54a4.49,4.49,0,0,0,1.25-1.64,1,1,0,0,0,.11-.68.9.9,0,0,0-.31-.41,3,3,0,0,0-3.58-.13c-.63.45-1.11,1.15-1.85,1.32a2.87,2.87,0,0,1-1.3-.09L376.5,226C376.19,227.36,376.22,230,376,230Z"/><path class="cls-23" d="M330,218.66a12.57,12.57,0,0,0,9.67,1.85,29.13,29.13,0,0,0,9.16-3.83l3.32.38a38.17,38.17,0,0,0,5.23.34A18.79,18.79,0,0,0,367.68,214"/><g class="cls-24"><path d="M345.63,202.28c-4.15-3.73-5.61-2.94-9-2.07a15.21,15.21,0,0,0-8.36,6.16c-1.34,1.86-2.39,4.29-1.5,6.4a5.39,5.39,0,0,0,4.84,2.91,14,14,0,0,0,5.73-1.42c3.16-1.33,6.33-3,8.5-5.62a6.22,6.22,0,0,0,1.48-3.06,2.38,2.38,0,0,0-.94-2.42A10.2,10.2,0,0,0,345.63,202.28Z"/><path class="cls-7" d="M330.51,208.34c.48.74,2.16-1.66,4.38-3.12s4.14-1.44,3.65-2.17-2.68-.16-4.9,1.3S330,207.6,330.51,208.34Z"/></g><g class="cls-25"><path d="M348.14,201.88c2.79-4.84,4.41-4.54,7.94-4.78a15.27,15.27,0,0,1,9.86,3.24c1.85,1.36,3.6,3.34,3.41,5.62a5.36,5.36,0,0,1-3.68,4.27,13.75,13.75,0,0,1-5.89.44c-3.42-.28-6.94-.84-9.83-2.69a6.24,6.24,0,0,1-2.36-2.45,2.39,2.39,0,0,1,.14-2.59C347.77,202.87,348,202.13,348.14,201.88Z"/><path class="cls-7" d="M364.4,202.93c-.23.85-2.58-.91-5.14-1.6s-4.38-.08-4.14-.93,2.5-1,5.06-.29S364.63,202.07,364.4,202.93Z"/></g><path class="cls-3" d="M203,235l-4.36,1.12a1.6,1.6,0,0,1-.94,0,1.63,1.63,0,0,1-.55-.46c-.88-.85-2.42-.82-3.77-.73a.82.82,0,0,0-.46.13.51.51,0,0,0-.16.4c0,.93,1,1.56,1.83,2s1.88,1,2,1.92a4.8,4.8,0,0,1-.52,2,3.48,3.48,0,0,0-.07,1.81.73.73,0,0,0,.31.52.94.94,0,0,0,.48.1,3.24,3.24,0,0,0,3-1.9c.25-.64.23-1.38.74-1.91a3.05,3.05,0,0,1,1.1-.66l3.25-1.41"/><path class="cls-3" d="M256.17,228.71l4.14,1.74a1.45,1.45,0,0,1,.78.56,2,2,0,0,1,.12.78c.11,1.36,1.34,2.31,2.46,3.09a.69.69,0,0,0,.44.18.57.57,0,0,0,.39-.27c.63-.87.3-2.07-.08-3.06s-.81-2.14-.3-3.08c.37-.69,1.13-1.05,1.74-1.54a4.49,4.49,0,0,0,1.25-1.64,1,1,0,0,0,.11-.68.9.9,0,0,0-.31-.41,3,3,0,0,0-3.58-.13c-.63.45-1.11,1.15-1.85,1.32a2.87,2.87,0,0,1-1.3-.09l-3.47-.77C256.4,226,256.43,228.69,256.17,228.71Z"/><path class="cls-21" d="M355,192.83c-.72-1.3-1.45-2.6-2.2-4-1.89.64-1.33,1-4.86,2.29a7.32,7.32,0,0,1-2.22.31c-.32-1,1.8-3.06,2.22-3.43,3-2.69,5.95-3.66,9.8-4.9.53-.17,2.7-.79,3.13-.44.82.66-.11,1.5-.56,1.83a51.59,51.59,0,0,1-5.68,3.48s1.79,3,2.69,4.15A6.21,6.21,0,0,0,355,192.83Z"/><path class="cls-3" d="M245.1,193.74c.25-1.47.49-2.94.76-4.49-1.87-.68-1.63-.08-5.22-1.24-.18-.06-2-1-1.93-1.15.4-1,3.32-1.26,3.87-1.29,4-.23,6.94.85,10.72,2.28.52.2,2.6,1.07,2.72,1.61.23,1-1,1.1-1.58,1.08a50.85,50.85,0,0,1-6.61-.82s-.47,3.46-.48,4.92A6.37,6.37,0,0,0,245.1,193.74Z"/><path class="cls-21" d="M328.5,198.6c-.09-1.49-.18-3-.26-4.55-2-.25-1.62.28-5.37,0a7.69,7.69,0,0,1-2.14-.69c.17-1.06,3-2,3.49-2.13,3.88-1.12,6.95-.72,10.95-.17.56.08,2.78.46,3,1,.45.94-.75,1.3-1.3,1.4a52.56,52.56,0,0,1-6.63.68s.32,3.47.63,4.9A6.25,6.25,0,0,0,328.5,198.6Z"/><path class="cls-26" d="M258.8,235.19c.56,1.82,1.95,4.52,2.91,7.06-11.43,2.23-24.41,4.53-36,5.9-6.39.76-14.65,1.34-21.27,1.58-1.42-3.27-1.57-14.85-4.31-18.68,8.38,1.36,19.83,2.74,28.36,2.07,9.81-2.45,18.27-6.7,28-9.8C256.55,223.32,257.92,232.3,258.8,235.19Z"/><path class="cls-5" d="M209.67,219a12.57,12.57,0,0,0,9.67,1.85A28.58,28.58,0,0,0,228.5,217l3.32.38a36.66,36.66,0,0,0,5.23.35,18.8,18.8,0,0,0,10.33-3.46"/><g class="cls-27"><path d="M225.33,202.62c-4.15-3.73-5.6-3-9-2.08a15.29,15.29,0,0,0-8.36,6.16c-1.33,1.87-2.38,4.29-1.49,6.4a5.34,5.34,0,0,0,4.83,2.91,13.69,13.69,0,0,0,5.74-1.42c3.16-1.33,6.32-3,8.49-5.62a6.14,6.14,0,0,0,1.48-3.06,2.38,2.38,0,0,0-.94-2.42A10,10,0,0,0,225.33,202.62Z"/><path class="cls-7" d="M210.21,208.67c.49.74,2.17-1.66,4.38-3.12s4.14-1.43,3.65-2.17-2.68-.15-4.9,1.31S209.72,207.93,210.21,208.67Z"/></g><g class="cls-28"><path d="M227.84,202.22c2.79-4.84,4.41-4.55,7.94-4.79a15.19,15.19,0,0,1,9.86,3.25c1.85,1.35,3.61,3.33,3.42,5.61a5.4,5.4,0,0,1-3.69,4.28,13.89,13.89,0,0,1-5.89.44c-3.42-.29-6.94-.85-9.82-2.7a6.11,6.11,0,0,1-2.36-2.45,2.39,2.39,0,0,1,.13-2.59C227.47,203.2,227.7,202.46,227.84,202.22Z"/><path class="cls-7" d="M244.1,203.26c-.23.85-2.57-.9-5.14-1.6s-4.37-.08-4.14-.93,2.5-1,5.06-.28S244.34,202.4,244.1,203.26Z"/></g><path class="cls-3" d="M198.11,203l-2.51-3.8c-1.84.78-1.26,1.05-4.67,2.67-.17.08-2.12.65-2.19.47-.39-1,1.56-3.19,1.94-3.59,2.79-2.92,5.65-4.12,9.38-5.66.52-.21,2.63-1,3.09-.69.87.59,0,1.5-.42,1.87a50.35,50.35,0,0,1-5.38,3.92s2,2.85,3,3.92A6.35,6.35,0,0,0,198.11,203Z"/><path class="cls-4" d="M213.58,246.2h-.23l-.27.06-.26,0-.26,0-.27-.06-.12-.31,0-.25,0-.41v-.32l0-.27,0-.21,0-.2,0-.15v-.22l-.05-.28v-.21l0-.27,0-.36,0-.26,0-.16-.33-3.13-.06-.45-.08-.29.14-.22.37-.06,1.88-.21.35,0,.27,0,.29,0,.41-.06.26,0,.39,0h.22l.13.1.07.26,0,.33-.18.12h-.2l-.3.07-.34,0-.33,0-.48.05-.08.1.07.72v.22l.07.64v.38l.13,1.24.29,0,.26,0,.8-.09h.35l.18.25,0,.23-.07.31-.16.06H216l-1.34.14,0,.07,0,.3.19,1.8.23,0h.22l1.09-.11.35.07.08.35,0,.27-.09.09h-.24l-.21,0-.31.07-.24,0h-.19l-.17,0h-.26l-.31,0-.15,0h-.25l-.21,0-.21,0Z"/><path class="cls-29" d="M223.8,245.13l-.44.05-.28-.07-.15-.26-.11-.2-.24-.45-.17-.32-.33-.06-.27,0-.37.08-.55.06-.55.07-.22,0-.25.08,0,.24-.06.2-.1.41-.07.21-.11.26-.24.05-.19.05h-.2l-.09-.06v-.23l.08-.41,0-.21,0-.22.11-.44.11-.39.09-.46.06-.26.07-.26.1-.5.06-.25,0-.25.06-.24.08-.41.11-.41.06-.25,0-.24.06-.26,0-.25.12-.48.19-.72.11-.47.11-.36.09-.3.14-.21.24,0,.2.29.22.34.26.48.13.23.13.24.28.43.13.21.27.41.12.21.23.39.18.35.22.37.13.2.17.34.2.34.13.22.23.41.1.18.22.36.23.35.09.26.2.27.12.23.22.37,0,.22-.07.13-.22,0-.3,0-.18.07h-.35l-.29.08Zm-3.55-1.79.35-.05.93-.11.24-.05L222,243l-.13-.23-.12-.21-.21-.39-.2-.37-.11-.19-.18-.33-.22-.37-.15-.25-.1.2-.05.22-.06.23-.09.45,0,.23-.19.89,0,.23v.23Z"/><path class="cls-30" d="M227.86,244.53l-.11-.35-.59-5.49,0-.34v-.17l0-.2,0-.45,0-.25,0-.26,0-.4.21-.2.9-.12.48-.1.62-.07.46,0,.46,0,.5,0,.47,0,.22.05.22.06.23.07.2.1.39.25.17.15.14.18.13.19.11.2.14.42,0,.23.06.49v.25l0,.26-.17.47-.09.23-.14.22-.13.2-.17.18-.37.32-.19.12-.22.09-.36.15-.13.09.17.17.16.15.35.3,1.62,1.4.41.33.2.28-.26.15-.23,0-.24,0-.33,0-.27-.21-.55-.46-.17-.17-.19-.15-.36-.33-.57-.49-.2-.16-.29-.25-.14-.12,0,.2,0,.22v.21l.17,1.61v.36l-.14.1-.8.09-.23.05-.36.06-.53.07-.28,0Zm2.79-4.1.47-.12.24-.1.23-.13.2-.16.23-.2.14-.26.1-.23.07-.25,0-.24v-.4l0-.25-.13-.32-.14-.22-.36-.36-.22-.12-.24-.11-.47-.08h-.2l-.21,0L230,237l-.18.1,0,.33.1.93v.49l0,.25,0,.29,0,.38,0,.46.1.29.31,0Z"/><path class="cls-31" d="M237.35,243.5l-.08-.19-.05-.38-.11-1-.07-.32v-.19l0-.18v-.13l0-.36-.08-.33v-.27l0-.23-.05-.35,0-.24v-.21l-.05-.2-.06-.34,0-.33-.05-.36,0-.44,0-.3,0-.35-.07-.3-.09-.19h-.19l-.29,0-.25.05-.26,0-.37,0-.2-.37,0-.32,0-.09.23,0,1.73-.19.34-.07h.35l.21,0,.29-.08,2.5-.27.08.05.07.24,0,.19,0,.26-.26.09-.4,0-.32.07-.24,0-.17,0-.07.19,0,.33.06.41,0,.26v.53l.1.94,0,.23.06.49.08.41v.36l.05.37,0,.21V241l0,.22.05.26v.5l.07.66,0,.38-.1.28-.33.07-.65.07-.31,0-.87.1Z"/><path class="cls-14" d="M248.33,242.35l-.36,0-.15-.21-.06-.6-.06-.44-.06-.36-.06-.32,0-.34,0-.3-.28-.12-1,.1-.27.13,0,.32.21,2-.07.37-.39.1-.25,0-.51,0-.43.06h-.61l-.12-.11v-.3l0-.26,0-.45-.07-.34-.05-.36,0-.4-.08-.74,0-.42,0-.32,0-.32v-.24l-.08-.29v-.34l0-.35,0-.33,0-.47-.09-.51,0-.47-.05-.46,0-.38.32-.15.5-.07.28,0h.26l.21,0,.34,0,.12-.05h.17l.17.11,0,.47.06.34,0,.37,0,.3.07.27v.4l.06.44,0,.35.07.4.08.8,0,.07h.28l1-.1.25-.09v-.29l0-.48-.05-.47-.07-.46,0-.29,0-.13v-.29l0-.44,0-.47,0-.44v-.19l0-.26.14-.08,1-.11.37-.05.23,0H249l.21.06.13.32,0,.19.06.47,0,.29,0,.14,0,.25,0,.3,0,.3,0,.38,0,.48,0,.48.16,1.42,0,.49.18,1.72,0,.43-.1.24-.31.05-.45.08-.23,0Z"/><path class="cls-32" d="M326.53,74.58a150.42,150.42,0,0,1,30.9-2.41,32.8,32.8,0,0,1,9.31,1.4A17.32,17.32,0,0,1,377,82.94a15,15,0,0,1-1,13.73,42.47,42.47,0,0,0-3,4.45,16.65,16.65,0,0,0-1.22,5.69,35,35,0,0,0-.21,6.63c.31,3.18,1.47,6.22,2,9.37.8,4.63,2,12.61-1,16.21-2.23,2.66-7.39,1.39-10.77,2.18a49.09,49.09,0,0,1-10.35.91,4.6,4.6,0,0,1-3.37-.85,4.52,4.52,0,0,1-1-2.4l-1.84-8.75-2.6,8.2a5.93,5.93,0,0,1-1,2.19,5.23,5.23,0,0,1-3.22,1.39,40.92,40.92,0,0,1-10.65-.34c-3.8-.46-8.22-1.34-9.89-4.78a11.48,11.48,0,0,1-.63-5.8l.59-9.73c.37-5.9.49-12.53-3.54-16.85-1.89-2-4.48-3.28-6.46-5.21-3.46-3.39-5.12-9.09-2.93-13.4C309.43,76.7,319.79,75.7,326.53,74.58Z"/><path class="cls-2" d="M317.28,109.65l-4.47.53a1.65,1.65,0,0,1-.94-.08,1.74,1.74,0,0,1-.48-.53c-.75-1-2.28-1.14-3.64-1.23a.83.83,0,0,0-.47.06.54.54,0,0,0-.21.38c-.14.92.72,1.68,1.54,2.25s1.73,1.24,1.74,2.17a5,5,0,0,1-.79,1.92,3.53,3.53,0,0,0-.32,1.77.76.76,0,0,0,.24.56,1.06,1.06,0,0,0,.47.17,3.25,3.25,0,0,0,3.2-1.48c.33-.61.41-1.35,1-1.8a3.21,3.21,0,0,1,1.18-.51l3.42-1"/><path class="cls-2" d="M370.81,110.56l3.88,2.29a1.41,1.41,0,0,1,.69.65,2.1,2.1,0,0,1,0,.79c-.07,1.36,1,2.47,2,3.4a.73.73,0,0,0,.42.23.6.6,0,0,0,.43-.22c.74-.76.57-2,.32-3s-.51-2.23.12-3.09a5.89,5.89,0,0,1,1.93-1.29,4.6,4.6,0,0,0,1.46-1.45,1,1,0,0,0,.2-.67,1,1,0,0,0-.25-.44,3,3,0,0,0-3.53-.61c-.68.35-1.25,1-2,1.06a2.86,2.86,0,0,1-1.28-.27l-3.34-1.23C371.41,108,371.08,110.58,370.81,110.56Z"/><path class="cls-33" d="M372.64,116.68c.31,1.88,1.32,4.74,1.93,7.39-11.62.67-24.79,1.2-36.43,1-6.44-.1-14.7-.64-21.29-1.29-1-3.44.44-14.93-1.76-19.09,8.12,2.47,19.28,5.38,27.83,5.86,10-1.11,19-4.19,29.09-6C372,104.61,372.16,113.7,372.64,116.68Z"/><path class="cls-34" d="M326,94.69a12.66,12.66,0,0,0,9.34,3.13A28.69,28.69,0,0,0,345,95.25l3.24.82a37.78,37.78,0,0,0,5.14,1.05,18.7,18.7,0,0,0,10.69-2"/><g class="cls-35"><path d="M343.77,80.56c-3.62-4.25-5.17-3.67-8.68-3.27a15.31,15.31,0,0,0-9.11,5c-1.57,1.67-2.94,3.93-2.34,6.15A5.37,5.37,0,0,0,328,92a13.83,13.83,0,0,0,5.87-.64c3.31-.89,6.67-2.08,9.18-4.43A6.11,6.11,0,0,0,345,84.05a2.38,2.38,0,0,0-.6-2.52C344.31,81.47,344,80.78,343.77,80.56Z"/><path class="cls-7" d="M328,84.53c.39.8,2.37-1.35,4.77-2.5s4.29-.87,3.9-1.66-2.63-.52-5,.63S327.58,83.74,328,84.53Z"/></g><g class="cls-36"><path d="M346.3,80.5c3.42-4.42,5-3.91,8.51-3.67a15.2,15.2,0,0,1,9.34,4.54c1.65,1.59,3.12,3.79,2.63,6a5.37,5.37,0,0,1-4.23,3.73,13.72,13.72,0,0,1-5.9-.35c-3.35-.74-6.75-1.77-9.37-4a6.29,6.29,0,0,1-2-2.75,2.39,2.39,0,0,1,.49-2.55C345.8,81.43,346.13,80.73,346.3,80.5Z"/><path class="cls-7" d="M362.28,83.72c-.35.82-2.43-1.24-4.88-2.27s-4.33-.67-4-1.48,2.61-.64,5.05.4S362.62,82.91,362.28,83.72Z"/></g><path class="cls-2" d="M308.86,80.88,305.5,77.8c-1.59,1.21-1,1.34-3.88,3.72-.14.12-1.9,1.15-2,1-.62-.88.74-3.48,1-4,2-3.51,4.48-5.36,7.73-7.76.45-.33,2.3-1.61,2.83-1.41,1,.36.37,1.45.05,1.91A51.46,51.46,0,0,1,307,76.41s2.65,2.27,3.87,3.07A6.4,6.4,0,0,0,308.86,80.88Z"/><circle class="cls-37" cx="357.15" cy="83.57" r="8.06"/><path class="cls-38" d="M359,91.4a33.08,33.08,0,0,0,.43,13.44,7.38,7.38,0,0,0,1.15,2.82,10.44,10.44,0,0,0,2.25,1.93"/><path class="cls-39" d="M343.69,210.43c-1.06,1.15-2.39,2.09-3.13,3.47a5.07,5.07,0,0,0-.49,3.48,3,3,0,0,0,1.66,2.23,4.23,4.23,0,0,0,2.39,0c4-.85,12.45-2.37,12.45-2.37s1.91-1.65,2.36-2.15c.74-.79-.31-2.48-1-3.34s-3.2-1.27-3.84-2.13c-1.51-2-2.15-3.88-3.31-6.43-.52-1.15-1.44-3.86-1.8-5.07s-2.68,1.63-3.93,1.5S346.08,207.85,343.69,210.43Z"/><path d="M343,219.54a8.56,8.56,0,0,0-1.38,5.18c.21-.4.82-.27,1.2,0s.82.56,1.23.36.47-.59.82-.66.57.2.87.26c.7.14,1.18-.76,1.88-.89a2.66,2.66,0,0,1,.69,0,5.54,5.54,0,0,0,1.79-.29l4.63-1.29a1.82,1.82,0,0,1,.69-.09,4.5,4.5,0,0,0,.7.18c.4,0,.69-.37,1.06-.51a4,4,0,0,1,1.1-.08c.36,0,.78-.25.79-.61a.85.85,0,0,0,1,.12c.33-.15.61-.41,1-.53a6.75,6.75,0,0,0,1.2-.27,1.21,1.21,0,0,0,.54-1.23,2.6,2.6,0,0,0-.63-1.26,6.33,6.33,0,0,0-4.89-2.28,12.32,12.32,0,0,0-2.88.49l-5.05,1.27a18.27,18.27,0,0,0-6.62,2.62C342.67,220,342.62,220,343,219.54Z"/><path class="cls-39" d="M376.83,196.31a4.75,4.75,0,1,1,3.68,8.74C377.94,206.13,374.26,197.39,376.83,196.31Z"/><path class="cls-39" d="M307.55,219.39a4.75,4.75,0,1,1,2.09-9.25C312.36,210.75,310.28,220,307.55,219.39Z"/><path class="cls-40" d="M475.74,76.57c1.5-4.62,7.52-6,13.9-4.74,6.83,1.32,14.7,4.07,8.46,12-3,3.82-7.72,6.74-13.89,4.74S474.25,81.18,475.74,76.57Z"/><path class="cls-41" d="M472.15,79.47a3.49,3.49,0,0,1,3.32.38"/><path class="cls-40" d="M471.24,78c-1.09-4.73-7-6.58-13.43-5.91-6.93.73-15,2.8-9.46,11.23,2.67,4,7.11,7.37,13.43,5.9S472.34,82.72,471.24,78Z"/><path class="cls-41" d="M500.11,78.67a19.16,19.16,0,0,1,9.93,2"/><path class="cls-41" d="M446.17,79.58a19.22,19.22,0,0,0-10,1.37"/><path class="cls-41" d="M502.35,114.69c-18,3.55-54.52,3.14-55,5a19.07,19.07,0,0,0-.35,8.7c.68,2.94,18.25,6,23.38,5.36,1.2-.16,1.65-.07,2.58-.85.74-.62.63-2.31,1.06-3.18,1.4-2.77.3-.29,1.7-3.06-.19,1.86,1.28,3.5,1.63,5.33s10.28.5,10.28.5,6.34-.31,8.35-.56c7-.85,4.92.51,5.68-.71,3-4.8,3.08-10.67.35-16.23C502,114.88,501.92,114.75,502.35,114.69Z"/></g><g id="orangealien"><path class="cls-42" d="M441,239.4c-.83,1.24-1.66,2.47-2.55,3.77,1.42,1.4,1.45.76,4.24,3.3.14.12,1.41,1.71,1.28,1.84-.78.74-3.55-.22-4.06-.43-3.77-1.46-6-3.64-8.81-6.51-.39-.4-1.93-2.05-1.81-2.59.21-1,1.38-.58,1.88-.33a51.09,51.09,0,0,1,5.68,3.48s1.86-3,2.48-4.28A6.21,6.21,0,0,0,441,239.4Z"/><path class="cls-42" d="M461.38,253.74c-.83,1.24-1.66,2.47-2.55,3.77,1.43,1.4,1.46.76,4.24,3.3.14.12,1.42,1.71,1.28,1.84-.77.74-3.54-.23-4.06-.43-3.76-1.46-6-3.65-8.81-6.51-.39-.4-1.92-2.05-1.81-2.6.22-1,1.39-.57,1.89-.32a51.54,51.54,0,0,1,5.67,3.48s1.86-2.95,2.48-4.28A6.35,6.35,0,0,0,461.38,253.74Z"/><path class="cls-43" d="M461.33,256.57a150.3,150.3,0,0,1-25.12-18.15,32.68,32.68,0,0,1-6.2-7.09,17.34,17.34,0,0,1-1.79-13.8,15,15,0,0,1,9.67-9.81,41.48,41.48,0,0,0,5.19-1.44,16.75,16.75,0,0,0,4.6-3.54,35.21,35.21,0,0,0,4.45-4.93c1.83-2.62,2.9-5.69,4.52-8.45,2.38-4.05,3.57-13,8.2-13.77,3.42-.59,9.6,5.79,12.69,7.37a49.22,49.22,0,0,1,8.49,6,4.6,4.6,0,0,1,2,2.83,4.54,4.54,0,0,1-.78,2.48L483,202.15l7.29-4.57a5.84,5.84,0,0,1,2.22-1,5.14,5.14,0,0,1,3.34,1,40.93,40.93,0,0,1,7.91,7.15c2.6,2.81,5.4,6.33,4.45,10-.49,1.91-1.91,3.42-3.27,4.84l-6.75,7c-4.09,4.26-8.47,9.24-8.2,15.14.13,2.77,1.3,5.4,1.56,8.16.45,4.81-2,10.23-6.43,12.1C475.74,266,467.19,260.07,461.33,256.57Z"/><path class="cls-42" d="M430,228.41l-4.45.73a1.4,1.4,0,0,1-.95-.06,2.09,2.09,0,0,1-.51-.59c-.82-1.09-2.37-1.25-3.73-1.32a.75.75,0,0,0-.47.09.6.6,0,0,0-.19.44c-.07,1.06.85,1.91,1.7,2.54s1.82,1.39,1.89,2.45a5.88,5.88,0,0,1-.65,2.23,4.64,4.64,0,0,0-.2,2.06,1,1,0,0,0,.28.63,1,1,0,0,0,.48.18,3,3,0,0,0,3.1-1.79c.29-.71.32-1.56.86-2.1a2.92,2.92,0,0,1,1.15-.62l3.35-1.19C431.25,230.8,429.82,228.57,430,228.41Z"/><path class="cls-42" d="M476.92,261.75l-.42,4.48a1.42,1.42,0,0,1-.31.9,1.92,1.92,0,0,1-.7.35c-1.26.52-1.81,2-2.22,3.27a.7.7,0,0,0,0,.47.55.55,0,0,0,.38.3c1,.34,2.06-.33,2.89-1s1.8-1.4,2.85-1.2a6,6,0,0,1,2,1.2,4.51,4.51,0,0,0,1.94.71.77.77,0,0,0,1-.52,3,3,0,0,0-.95-3.46c-.61-.46-1.42-.71-1.81-1.37a3,3,0,0,1-.3-1.26l-.3-3.55C479.54,261.18,477,262,476.92,261.75Z"/><path class="cls-44" d="M474.7,241.55a12.54,12.54,0,0,0-5.09-8.42,28.62,28.62,0,0,0-9-4.25l-1.94-2.73a39.14,39.14,0,0,0-3.24-4.12,18.79,18.79,0,0,0-9.48-5.36"/><g class="cls-45"><path d="M452.06,240.86c0,5.58,1.56,6.14,4.49,8.1a15.33,15.33,0,0,0,10.17,2.1c2.28-.26,4.79-1.1,5.76-3.17a5.37,5.37,0,0,0-1.07-5.54,13.78,13.78,0,0,0-4.89-3.32c-3.1-1.46-6.43-2.72-9.86-2.55a6.08,6.08,0,0,0-3.26.94,2.4,2.4,0,0,0-1.18,2.32A10.2,10.2,0,0,0,452.06,240.86Z"/><path class="cls-7" d="M466.67,248.05c.23-.86-2.68-.5-5.25-1.17s-3.83-2.12-4.06-1.26,1.68,2.1,4.25,2.77S466.45,248.91,466.67,248.05Z"/></g><g class="cls-46"><path d="M450.08,239.26c-5.46,1.16-6.33-.24-8.87-2.7a15.3,15.3,0,0,1-4.18-9.51c-.23-2.28.07-4.9,1.89-6.29a5.37,5.37,0,0,1,5.64-.12,13.76,13.76,0,0,1,4.27,4.09c2.08,2.73,4,5.72,4.57,9.11a6.29,6.29,0,0,1-.24,3.39,2.4,2.4,0,0,1-2,1.63C451.06,238.88,450.36,239.2,450.08,239.26Z"/><path class="cls-7" d="M440,226.47c.79-.4,1,2.52,2.25,4.89s2.87,3.31,2.08,3.71-2.4-1.21-3.6-3.58S439.19,226.87,440,226.47Z"/></g></g><g id="greenalien"><path class="cls-47" d="M82.09,201.85a150.54,150.54,0,0,1,30.29-6.53,32.66,32.66,0,0,1,9.42.13,17.33,17.33,0,0,1,11.45,7.91,15,15,0,0,1,.83,13.74,41.59,41.59,0,0,0-2.4,4.82,16.54,16.54,0,0,0-.44,5.79,35.44,35.44,0,0,0,.68,6.6c.73,3.12,2.29,6,3.26,9,1.42,4.48,3.67,11.57,1.16,15.54-1.85,2.94-7.13,3-10.38,4.27a48.4,48.4,0,0,1-10.14,2.29,4.59,4.59,0,0,1-3.45-.39A4.64,4.64,0,0,1,111,262.8l-3-8.42-1.47,8.47a5.82,5.82,0,0,1-.75,2.32,5.2,5.2,0,0,1-3,1.8,40.51,40.51,0,0,1-10.6,1.09c-3.83.06-8.33-.21-10.45-3.4C80.68,263,80.51,261,80.36,259l-.71-9.72c-.43-5.9-1.2-12.48-5.78-16.23-2.14-1.75-4.88-2.64-7.1-4.29-3.88-2.89-6.29-8.32-4.7-12.88C65.43,206.26,75.56,203.88,82.09,201.85Z"/><path class="cls-48" d="M77.64,237.85,73.28,239a1.64,1.64,0,0,1-1,.05,1.69,1.69,0,0,1-.54-.45c-.88-.86-2.42-.83-3.77-.74a.88.88,0,0,0-.46.13.48.48,0,0,0-.16.4c0,.93.94,1.57,1.83,2s1.88,1,2,1.92a4.84,4.84,0,0,1-.52,2,3.55,3.55,0,0,0-.08,1.8.77.77,0,0,0,.31.52,1,1,0,0,0,.49.1,3.26,3.26,0,0,0,3-1.89c.25-.65.23-1.39.73-1.92a3.09,3.09,0,0,1,1.11-.66l3.25-1.4"/><path class="cls-48" d="M130.8,231.56l4.15,1.75a1.41,1.41,0,0,1,.77.55,2.28,2.28,0,0,1,.13.78c.11,1.36,1.33,2.32,2.45,3.1a.67.67,0,0,0,.44.17.59.59,0,0,0,.4-.27c.63-.86.3-2.06-.09-3.06s-.8-2.14-.3-3.08c.37-.69,1.13-1.05,1.74-1.54a4.56,4.56,0,0,0,1.26-1.63.77.77,0,0,0-.21-1.09,3,3,0,0,0-3.58-.14c-.62.45-1.1,1.15-1.84,1.33a3.07,3.07,0,0,1-1.31-.09l-3.47-.78C131,228.89,131.07,231.55,130.8,231.56Z"/><path class="cls-48" d="M109.07,195.86c-.16-1.48-.32-3-.47-4.53-2-.15-1.61.36-5.37.21-.19,0-2.19-.4-2.17-.59.11-1.06,2.86-2.11,3.38-2.29,3.83-1.3,6.91-1,10.94-.68.55.05,2.79.32,3.05.81.5.93-.68,1.34-1.23,1.46a50.62,50.62,0,0,1-6.58,1s.48,3.45.86,4.87A6.28,6.28,0,0,0,109.07,195.86Z"/><path class="cls-49" d="M84.31,221.85A12.61,12.61,0,0,0,94,223.69a28.62,28.62,0,0,0,9.15-3.83l3.33.38a36.66,36.66,0,0,0,5.23.35A18.77,18.77,0,0,0,122,217.13"/><g class="cls-50"><path d="M100,205.47c-4.15-3.73-5.61-2.94-9-2.07a15.21,15.21,0,0,0-8.36,6.16c-1.34,1.86-2.39,4.28-1.5,6.4a5.38,5.38,0,0,0,4.83,2.91,14,14,0,0,0,5.74-1.42c3.16-1.34,6.33-3,8.5-5.62a6.22,6.22,0,0,0,1.48-3.06,2.4,2.4,0,0,0-.94-2.43C100.63,206.29,100.18,205.66,100,205.47Z"/><path class="cls-7" d="M84.84,211.53c.49.74,2.17-1.66,4.39-3.12s4.13-1.44,3.65-2.18-2.68-.15-4.9,1.31S84.36,210.79,84.84,211.53Z"/></g><g class="cls-51"><path d="M102.48,205.07c2.78-4.84,4.41-4.55,7.94-4.79a15.28,15.28,0,0,1,9.86,3.25c1.85,1.36,3.6,3.34,3.41,5.62a5.36,5.36,0,0,1-3.68,4.27,14,14,0,0,1-5.9.44c-3.41-.28-6.93-.85-9.82-2.7a6.15,6.15,0,0,1-2.36-2.44,2.39,2.39,0,0,1,.14-2.6C102.1,206.06,102.34,205.32,102.48,205.07Z"/><path class="cls-7" d="M118.74,206.11c-.23.86-2.58-.9-5.14-1.6s-4.38-.07-4.14-.93,2.5-1,5.06-.28S119,205.26,118.74,206.11Z"/></g><path class="cls-48" d="M80.77,203.17c-.83-1.24-1.66-2.48-2.52-3.8-1.83.79-1.25,1.06-4.66,2.67a7.54,7.54,0,0,1-2.19.48c-.39-1,1.56-3.19,1.94-3.59,2.79-2.92,5.65-4.13,9.38-5.66.52-.21,2.63-1,3.09-.69.87.59,0,1.5-.42,1.87A50.35,50.35,0,0,1,80,198.37s2,2.84,3,3.92A6.27,6.27,0,0,0,80.77,203.17Z"/><path class="cls-52" d="M105.37,237.44a3.66,3.66,0,0,0-2.69-.35,1.79,1.79,0,1,0,2.16,2.78c.5,1.3-1.07,3.07,0,4a1.38,1.38,0,0,0,1.93-.48,4.06,4.06,0,0,0,.44-2.19,3,3,0,0,0,2.86,1.63,1.84,1.84,0,0,0,1.45-2.56c-.63-1-2.13-.91-3.31-.65a2.53,2.53,0,0,0,2-1.94,1.93,1.93,0,0,0-1.5-2.2,1.56,1.56,0,0,0-1.68,1.84,6,6,0,0,0-.31-2.92,2.14,2.14,0,0,0-2.22,1A1.29,1.29,0,0,0,105.37,237.44Z"/><path class="cls-53" d="M97.38,238.31c.44-1.26.07-2.65.18-4s1.2-2.83,2.49-2.47a1.87,1.87,0,0,1,1.11,2.27,3.56,3.56,0,0,1-1.83,2,5.19,5.19,0,0,1,2.69-.82c1,.07,1.92.86,1.81,1.8-.14,1.33-1.92,1.63-3.26,1.57a3.47,3.47,0,0,1,1.23,2.6,2.2,2.2,0,0,1-1.73,2.12,1.62,1.62,0,0,1-1.8-1.79,2.25,2.25,0,1,1-3-2.2A2.35,2.35,0,0,1,94.25,236C95.06,234.9,97,234.87,97.38,238.31Z"/><path class="cls-52" d="M77.84,234.64a5.36,5.36,0,0,0-2.49.55,2.91,2.91,0,0,0,.47,3,1.81,1.81,0,0,0,2.75-.18,2,2,0,1,0,2.87.7,3.05,3.05,0,0,0,3.57.68A2.56,2.56,0,0,0,86.1,236a2.22,2.22,0,0,0-3.33-.58,2.59,2.59,0,0,0,1.56-3.14,2.53,2.53,0,0,0-3.14-1.53,2.49,2.49,0,0,0-1.37,3.2,1.53,1.53,0,0,0-2-1.2,1.45,1.45,0,0,0-.51,2.23A2.18,2.18,0,0,1,77.84,234.64Z"/><path class="cls-53" d="M125.32,232c-1.29-.81-2.7-1.94-2.63-3.47a2.23,2.23,0,1,1,4.08,1.35,2.91,2.91,0,0,1,2.19-1.57,2,2,0,0,1,2.11,1.44,1.5,1.5,0,0,1-1.61,1.75,2.37,2.37,0,0,1,2.71,2.59c-.31,1.44-2.6,2-3.39.73a6.32,6.32,0,0,1-.12,3.09,2.17,2.17,0,0,1-2.44,1.47c-1.41-.43-1.5-2.38-1.21-3.82a1.64,1.64,0,1,1-.74-2.39c-.3.51-1.23.24-1.33-.35a1.12,1.12,0,0,1,1-1.19A2.24,2.24,0,0,1,125.32,232Z"/><path class="cls-54" d="M88,238.08a5.94,5.94,0,0,0-3.63,4,2,2,0,0,0,.1,1.56,1.71,1.71,0,0,0,2.39.28,5,5,0,0,0,1.51-2.19,2.49,2.49,0,0,0,2.18,2.29c1.16,0,2.08-1.57,1.27-2.39a1.76,1.76,0,1,0,.19-2.51,2.38,2.38,0,0,0,.4-3.4c-.92-.91-2.88-.29-2.88,1a1.92,1.92,0,0,0-1.3-2.65,2.27,2.27,0,0,0-2.53,1.77C85.52,237,86.18,238.21,88,238.08Z"/><path class="cls-52" d="M123.48,233.56a6,6,0,0,0-5-2.06,2.14,2.14,0,0,0-1.45.62,1.73,1.73,0,0,0,.54,2.35,5.07,5.07,0,0,0,2.58.68,2.49,2.49,0,0,0-1.43,2.83c.38,1.09,2.19,1.42,2.69.38a1.76,1.76,0,1,0,2.42-.66,2.37,2.37,0,0,0,3.33-.77c.55-1.17-.68-2.8-1.9-2.37a1.92,1.92,0,0,0,2-2.12,2.25,2.25,0,0,0-2.52-1.78C123.63,230.83,122.73,231.85,123.48,233.56Z"/><path class="cls-54" d="M113.54,235.07a5.93,5.93,0,0,0-3.63,4,2.07,2.07,0,0,0,.1,1.57,1.72,1.72,0,0,0,2.39.28,5,5,0,0,0,1.51-2.19,2.49,2.49,0,0,0,2.18,2.29c1.16,0,2.08-1.58,1.27-2.4a1.76,1.76,0,1,0,.19-2.5,2.38,2.38,0,0,0,.4-3.4c-.92-.91-2.88-.3-2.88,1a1.92,1.92,0,0,0-1.3-2.65,2.27,2.27,0,0,0-2.53,1.77C111,234,111.68,235.2,113.54,235.07Z"/></g><g id="hat"><path class="cls-55" d="M354.89,68.83l-.38-9.35a6.39,6.39,0,0,0-6.64-6.11l-11.93.49a6.69,6.69,0,0,0-6.4,7l.37,9.12c-3.87.46-6.3,1-6.28,1.48,0,.91,8.69,1.29,19.33.86s19.23-1.53,19.19-2.45C362.13,69.3,359.29,69,354.89,68.83Z"/></g></svg>