<svg xmlns="http://www.w3.org/2000/svg" viewBox="0 0 2628.9 1743.93"><defs><style>.cls-1{fill:#9db3b0;}.cls-2{fill:#a8bdba;}.cls-3{fill:#b2c9c6;}.cls-4{fill:#f3fae8;}.cls-5{fill:#cfd3a3;}.cls-6{fill:#42428e;}.cls-7{fill:#f5fafa;}.cls-8{fill:#74a1bd;}.cls-9{opacity:0.4;}.cls-10{fill:#e9e9f4;}.cls-11{opacity:0.6;}</style></defs><g id="mountains"><path class="cls-1" d="M194.55,855.23v452.7c93.91-49.24,250.44-147.64,329.65-289.07C303.57,844.39,253.07,807.94,194.55,855.23Z" transform="translate(-194.51 -118.85)"/><path class="cls-1" d="M1386.4,1097.31c289.4-161.14,771.65-563.82,863.65-555.82s319.12,450,319.12,450c-308,216-861.65,390.84-872.22,387.5C1518.39,1279.65,1386.4,1097.31,1386.4,1097.31Z" transform="translate(-194.51 -118.85)"/><path class="cls-2" d="M2386.05,955c-177.12,75.09-498.4,268.92-923.48,349.91l35.16,44s316.83,271.41,1135.77,454.35c112-53.25,189.88-148,189.88-271.26V794.69C2737.4,686.3,2666.05,836.28,2386.05,955Z" transform="translate(-194.51 -118.85)"/><path class="cls-3" d="M1908.23,1481.76c-56-185.1-396-286.9-556-570.9-20-52-176-96-372-156,0,0-120-180-228-174.81-86.49,4.15-369.51,368.09-557.68,595v357q0,4.05.11,8.07C652,1565.87,1895.18,1623,1908.23,1481.76Z" transform="translate(-194.51 -118.85)"/><path class="cls-4" d="M2823.41,1430.41V1532c0,174-155.25,291.34-342.81,315.11-218.74,27.56-444.21,16.09-904.92-12.86-258.61-16.23-778.77,10.63-1038.36,12.86-147.28,1.26-272.74-84.75-321.27-204.9A291.34,291.34,0,0,1,194.51,1532V1430.68c351.76-44,812.06-70.76,1315.71-70.76C2012.62,1359.92,2471.93,1386.49,2823.41,1430.41Z" transform="translate(-194.51 -118.85)"/><path class="cls-5" d="M2500.17,1432.42s-22.47-23.13-14.74-36.3,20.78,28.3,20.78,28.3-6.77-49,7.24-49.9,0,49.9,0,49.9,5.2-11.84,10.27-12.57,3.63,10-5.43,20.57Z" transform="translate(-194.51 -118.85)"/><path class="cls-6" d="M2496.61,1429.42a91.71,91.71,0,0,1-10.36-13.33c-6.33-10.11-7.84-18.13-4.48-23.85,1.25-2.13,2.75-3.12,4.47-2.92,3.47.39,7.37,5.69,11.94,16.19,1.36,3.14,2.57,6.28,3.52,8.89-1.09-11.35-2.35-33.92,3.85-41.48a6.62,6.62,0,0,1,4.83-2.63,5,5,0,0,1,4.46,1.94c5.58,6.89.57,31.43-2.2,42.92,2.06-3.36,5-7.1,8-7.53a2.89,2.89,0,0,1,3.15,1.48c1.83,3.32-.64,11.81-7.93,20.29l-1.11-1c7.17-8.34,9.12-16.18,7.77-18.64a1.46,1.46,0,0,0-1.67-.74c-3.84.56-8.31,9-9.71,12.14l-1.37-.49c.11-.39,10.73-39.24,4-47.56a3.65,3.65,0,0,0-3.24-1.41,5.21,5.21,0,0,0-3.8,2.1c-7.83,9.56-2.82,46.6-2.77,47l-1.42.32c-2.59-8.22-10.57-29.7-16.4-30.36-1.11-.13-2.11.59-3.06,2.21-7.36,12.55,14.42,35.2,14.64,35.43Z" transform="translate(-194.51 -118.85)"/><path class="cls-5" d="M662.08,1414.29s-50.38-51-33.05-80.07,46.59,62.42,46.59,62.42-15.17-108.17,16.25-110.05,0,110.05,0,110.05,11.65-26.1,23-27.72,8.13,22.13-12.18,45.37Z" transform="translate(-194.51 -118.85)"/><path class="cls-6" d="M654.11,1407.67c-2.09-2.12-51-52.24-33.28-82,2.81-4.7,6.17-6.87,10-6.44,7.78.87,16.54,12.55,26.77,35.71,3.06,6.93,5.78,13.86,7.91,19.61-2.45-25-5.29-74.81,8.62-91.5a14.94,14.94,0,0,1,10.83-5.79,11.41,11.41,0,0,1,10,4.28c12.52,15.2,1.27,69.33-4.92,94.66,4.6-7.41,11.13-15.65,17.81-16.6a6.52,6.52,0,0,1,7.07,3.26c4.09,7.32-1.45,26.06-17.79,44.75l-2.48-2.09c16.07-18.39,20.44-35.69,17.41-41.12-.76-1.36-2-1.87-3.75-1.61-8.59,1.21-18.62,19.73-21.76,26.76l-3.07-1.07c.06-.22,6.15-22,10.22-45.83,5.33-31.17,4.89-51.6-1.28-59.08a8.2,8.2,0,0,0-7.26-3.11,11.68,11.68,0,0,0-8.51,4.62c-17.56,21.08-6.34,102.78-6.23,103.61l-3.17.7c-5.8-18.13-23.71-65.51-36.78-67-2.49-.27-4.72,1.32-6.84,4.88-16.51,27.67,32.31,77.64,32.8,78.15Z" transform="translate(-194.51 -118.85)"/><path class="cls-5" d="M2089.73,1782.8s-27.13-27.94-17.8-43.84,25.1,34.17,25.1,34.17-8.17-59.22,8.75-60.25,0,60.25,0,60.25,6.27-14.29,12.4-15.17,4.37,12.11-6.57,24.84Z" transform="translate(-194.51 -118.85)"/><path class="cls-6" d="M2085.44,1779.17c-1.13-1.16-27.49-28.6-17.92-44.9,1.51-2.57,3.32-3.76,5.39-3.52,4.19.47,8.91,6.87,14.42,19.55,1.65,3.79,3.11,7.59,4.26,10.73-1.32-13.7-2.85-41,4.64-50.09a8,8,0,0,1,5.84-3.17,6.09,6.09,0,0,1,5.38,2.34c6.75,8.32.68,38-2.65,51.83,2.48-4.06,6-8.57,9.59-9.09a3.51,3.51,0,0,1,3.82,1.78c2.19,4-.79,14.27-9.59,24.5l-1.33-1.14c8.65-10.07,11-19.54,9.37-22.51a1.75,1.75,0,0,0-2-.89c-4.62.67-10,10.81-11.72,14.66l-1.65-.59c0-.12,3.31-12.05,5.51-25.09,2.87-17.07,2.63-28.25-.69-32.35a4.41,4.41,0,0,0-3.92-1.7,6.29,6.29,0,0,0-4.58,2.53c-9.46,11.54-3.41,56.27-3.35,56.72l-1.71.39c-3.13-9.93-12.77-35.87-19.81-36.66-1.34-.15-2.54.72-3.69,2.67-8.89,15.14,17.41,42.5,17.67,42.78Z" transform="translate(-194.51 -118.85)"/><path class="cls-5" d="M355.55,1667.67s-27.13-27.93-17.8-43.84,25.1,34.17,25.1,34.17-8.17-59.22,8.75-60.24,0,60.24,0,60.24,6.27-14.28,12.4-15.17,4.37,12.12-6.57,24.84Z" transform="translate(-194.51 -118.85)"/><path class="cls-6" d="M351.26,1664.05c-1.13-1.16-27.49-28.6-17.92-44.9,1.51-2.58,3.32-3.76,5.39-3.53,4.19.48,8.91,6.87,14.42,19.55,1.65,3.8,3.11,7.59,4.26,10.74-1.32-13.7-2.85-41,4.64-50.1a8,8,0,0,1,5.84-3.17,6.12,6.12,0,0,1,5.38,2.35c6.75,8.32.68,38-2.65,51.82,2.48-4.06,6-8.57,9.59-9.09a3.51,3.51,0,0,1,3.82,1.79c2.19,4-.79,14.26-9.59,24.5l-1.33-1.15c8.65-10.06,11-19.54,9.37-22.51a1.76,1.76,0,0,0-2-.88c-4.62.66-10,10.8-11.72,14.65l-1.65-.59c0-.12,3.31-12,5.51-25.09,2.87-17.06,2.63-28.25-.69-32.35a4.39,4.39,0,0,0-3.92-1.69,6.22,6.22,0,0,0-4.58,2.53c-9.45,11.54-3.41,56.27-3.35,56.72l-1.71.38c-3.13-9.93-12.77-35.86-19.81-36.66-1.34-.15-2.54.72-3.69,2.67-8.89,15.15,17.41,42.51,17.67,42.78Z" transform="translate(-194.51 -118.85)"/><path class="cls-5" d="M1932.43,1429.4s-38.52-39.66-25.26-62.24,35.62,48.51,35.62,48.51-11.6-84.07,12.42-85.53,0,85.53,0,85.53,8.91-20.28,17.61-21.54,6.21,17.21-9.32,35.27Z" transform="translate(-194.51 -118.85)"/><path class="cls-6" d="M1926.34,1424.25a155.91,155.91,0,0,1-17.77-22.86c-10.84-17.32-13.43-31.08-7.68-40.88,2.15-3.65,4.73-5.34,7.67-5,10,1.12,20.88,27.32,26.52,42.9-.59-6.25-1.21-14.45-1.44-23.09-.65-24.52,2-40.65,8-47.94a11.4,11.4,0,0,1,8.28-4.5,8.69,8.69,0,0,1,7.65,3.33c9.57,11.82,1,53.88-3.76,73.57,3.52-5.76,8.51-12.16,13.61-12.9a5,5,0,0,1,5.41,2.53c3.13,5.69-1.11,20.26-13.6,34.79l-1.89-1.63c12.28-14.29,15.62-27.74,13.31-32a2.5,2.5,0,0,0-2.87-1.25c-6.57.94-14.24,15.34-16.64,20.8l-2.35-.83c0-.17,4.7-17.1,7.82-35.63,4.07-24.22,3.73-40.1-1-45.92a6.26,6.26,0,0,0-5.56-2.41,8.89,8.89,0,0,0-6.5,3.6c-13.43,16.38-4.85,79.88-4.76,80.52l-2.43.54c-4.43-14.09-18.13-50.91-28.12-52-1.9-.22-3.61,1-5.23,3.79-12.63,21.51,24.7,60.34,25.08,60.73Z" transform="translate(-194.51 -118.85)"/><path class="cls-7" d="M2012.61,708.15c99-60,204-129,180-57s-179.41,132-85.2,147,118.2-180,154.21-108,134.35,127.32,120,45c-7.35-42.2,23.31-8,58.85,28.47-67.47-109.55-145.26-218.2-190.45-222.13-44.78-3.9-182,89.5-344.45,205C1924,757.21,1966.33,740.19,2012.61,708.15Z" transform="translate(-194.51 -118.85)"/><path class="cls-7" d="M752.23,580.05c-23.69,1.13-62.12,29.26-109.3,74.16,8.27,15.42-.5,42.94.81,48.65,2.31,10,32.31-36,64.31-60s56,38,62,48,12-113,46-53.48,68,5.48,90,75.48,40,40,76,64c30.73,20.49,116.88,47.43,94.09,7.3-30.5-9.39-62.63-19.11-95.91-29.3C980.23,754.86,860.23,574.86,752.23,580.05Z" transform="translate(-194.51 -118.85)"/><path class="cls-7" d="M2602.59,838c3.78,13.21,39.76,26.11,88.64-23.78,55.14-56.28,32.82,16.65,66.82-5.35,22.53-14.58,50.46-8.53,59.12-21.57C2761.93,725.13,2710.55,768.17,2602.59,838Z" transform="translate(-194.51 -118.85)"/></g><g id="trees"><path class="cls-5" d="M2336.12,1343.31s-163.64,11.91-172.56-62.48,74.38-83.3,77.35-151.73-11.9-172.57,68.43-190.42,56.53,62.48,104.14,110.08,44.63,86.29,44.63,148.77S2618.77,1355.22,2336.12,1343.31Z" transform="translate(-194.51 -118.85)"/><path class="cls-8" d="M2325.71,1410.26s-5.46-6.45-2.48-41.16,0-280.67,8.92-281.66c4.74-.52,3.7,98.58,3.48,185.46C2335.43,1349.78,2344.06,1410.75,2325.71,1410.26Z" transform="translate(-194.51 -118.85)"/><path class="cls-8" d="M2326.86,1279.51c-44.2-22.08-62.21-71.94-63-74l5.6-2c.18.51,18,49.72,60,70.71Z" transform="translate(-194.51 -118.85)"/><path class="cls-8" d="M2329,1205.36l-1.53-5.76c38.66-10.37,52.37-50.21,52.49-50.61l5.65,1.86C2385,1152.62,2370.69,1194.16,2329,1205.36Z" transform="translate(-194.51 -118.85)"/><path class="cls-5" d="M2658.19,1379.79s-103.94,8.55-109.61-44.89,47.25-59.86,49.14-109-7.56-124,43.47-136.81,35.9,44.89,66.14,79.1,28.35,62,28.35,106.88S2837.73,1388.34,2658.19,1379.79Z" transform="translate(-194.51 -118.85)"/><path class="cls-8" d="M2651.58,1427.89s-3.46-4.64-1.58-29.58,0-201.65,5.67-202.36c3-.38,2.35,70.82,2.21,133.25C2657.75,1384.43,2663.23,1428.24,2651.58,1427.89Z" transform="translate(-194.51 -118.85)"/><path class="cls-8" d="M2652.31,1333.94c-28.07-15.86-39.52-51.68-40-53.19l3.56-1.43c.11.36,11.43,35.72,38.11,50.8Z" transform="translate(-194.51 -118.85)"/><path class="cls-8" d="M2653.64,1280.67l-1-4.14c24.56-7.45,33.26-36.08,33.34-36.36l3.59,1.34C2689.22,1242.77,2680.15,1272.62,2653.64,1280.67Z" transform="translate(-194.51 -118.85)"/></g><g id="cloud_big" data-name="cloud big"><g class="cls-9"><path class="cls-10" d="M856.36,168.76s-29.3-56.36-103.45-49.3S687.59,183,652.28,177.72s-84.74,0-95.34,35.31-58.26,15.89-60,45.9,54.73,51.2,120.05,24.72,97.1,20.57,188.9,12.05,103.18-19.11,157.52-13.82,53.05-31.91,28.33-56.62S867,202.89,856.36,168.76Z" transform="translate(-194.51 -118.85)"/></g></g><g id="cloud_small" data-name="cloud small"><g class="cls-11"><path class="cls-10" d="M2455.87,379.75s-13-25-46-21.9-29,28.23-44.71,25.88-37.64,0-42.35,15.69-25.88,7.06-26.67,20.39,24.32,22.74,53.34,11,43.13,9.14,83.92,5.35,45.83-8.49,70-6.14S2527,415.83,2516,404.85,2460.57,394.91,2455.87,379.75Z" transform="translate(-194.51 -118.85)"/></g></g></svg>