<svg xmlns="http://www.w3.org/2000/svg" viewBox="0 0 97.22 32.85"><defs><style>.cls-1{fill:#45006d;}</style></defs><g id="Layer_1" data-name="Layer 1"><path class="cls-1" d="M47.88,17.17V20.1a8.94,8.94,0,0,1,4.49-1.17h.51v5h-.51a4.44,4.44,0,0,0-4.49,4.46v8.74h-5v-20Z" transform="translate(-1.78 -8)"/><path class="cls-1" d="M65.27,18.93a9.48,9.48,0,1,1,0,19,8.94,8.94,0,0,1-4.49-1.17v2.9h-5V13.43h5V20.1A8.94,8.94,0,0,1,65.27,18.93Zm-4.49,9.49a4.49,4.49,0,1,0,4.49-4.49A4.46,4.46,0,0,0,60.78,28.42Z" transform="translate(-1.78 -8)"/><path class="cls-1" d="M81,18.18a3,3,0,1,1,3-3A3,3,0,0,1,81,18.18Zm2.49,19h-5V19.68h5Z" transform="translate(-1.78 -8)"/><path class="cls-1" d="M88.76,13.43h5v6.25H99v5H93.76v4a4.31,4.31,0,0,0,4.49,4.25H99v5h-.75a9.36,9.36,0,0,1-9.49-9.22v-4H86.28v-5h2.48Z" transform="translate(-1.78 -8)"/></g><g id="planet"><path class="cls-1" d="M44,8.37c-1.91-1.12-6.79.35-12.8,3.54A14.93,14.93,0,0,0,9.48,27.77C3.16,33.93.21,39.06,2.62,40.48c1.9,1.11,6.71-.31,12.64-3.45a14.93,14.93,0,0,0,23.4-8.58A14.8,14.8,0,0,0,38.17,20C43.75,14.33,46.26,9.71,44,8.37Zm-6.23,4.35c1.6.45,1.22,2.32-.67,4.94a15.07,15.07,0,0,0-3.65-4.27A8.09,8.09,0,0,1,37.76,12.72ZM24.15,14.45A10.57,10.57,0,0,1,34,21.21,61.8,61.8,0,0,1,28.75,26a73,73,0,0,1-11.09,7.45,10.59,10.59,0,0,1,6.49-19ZM8.85,36.13c-1.79-.5-1.14-2.75,1.33-5.83a14.93,14.93,0,0,0,3.2,5.08C11.41,36.11,9.82,36.4,8.85,36.13Zm15.3-.5a10.56,10.56,0,0,1-4.6-1,106.28,106.28,0,0,0,9.62-6.67c2-1.52,3.79-3,5.44-4.53A10,10,0,0,1,34.74,25,10.59,10.59,0,0,1,24.15,35.63Z" transform="translate(-1.78 -8)"/></g></svg>