<svg xmlns="http://www.w3.org/2000/svg" viewBox="0 0 500 500"><defs><style>.cls-1{fill:#bef4df;}.cls-1,.cls-7{stroke:#050505;}.cls-1,.cls-10,.cls-11,.cls-12,.cls-2,.cls-4,.cls-5,.cls-6,.cls-7,.cls-8,.cls-9{stroke-miterlimit:10;}.cls-2,.cls-4{fill:#fff;}.cls-12,.cls-2,.cls-8,.cls-9{stroke:#000;}.cls-3{fill:#999;}.cls-11,.cls-4,.cls-5,.cls-6{stroke:#020202;}.cls-6{fill:#f85386;}.cls-7{fill:#fdfffe;}.cls-10,.cls-8{fill:none;}.cls-9{fill:#f9f9f9;}.cls-10{stroke:#999;}.cls-11{fill:#c2a6e3;}.cls-12{fill:#c73388;}</style></defs><g id="Layer_1" data-name="Layer 1"><circle class="cls-1" cx="309.79" cy="173.69" r="106.35"/><rect class="cls-2" x="75.71" y="192.72" width="165.64" height="95.67"/><rect class="cls-3" x="117.09" y="288.39" width="29.99" height="22.16"/><rect class="cls-3" x="158.08" y="288.23" width="29.99" height="33.75"/><rect class="cls-3" x="201.95" y="288.23" width="28.31" height="49.14"/><rect class="cls-2" x="75.71" y="192.72" width="165.64" height="95.67"/><rect x="75.71" y="192.72" width="165.64" height="12.85"/><rect x="114.03" y="236.15" width="29.99" height="70.26"/><circle cx="95.62" cy="221.32" r="10.55"/><rect x="155.44" y="236.15" width="29.99" height="81.84"/><rect x="196.85" y="236.15" width="29.99" height="97.1"/><rect class="cls-3" x="198.24" y="71.76" width="50.03" height="69.88"/><rect class="cls-4" x="193.14" y="38.84" width="49.71" height="96"/><rect x="198.24" y="76.88" width="9.81" height="16.58"/><rect x="198.24" y="95.47" width="9.81" height="16.58"/><rect x="212.55" y="95.47" width="27.47" height="16.58"/><rect x="198.24" y="113.54" width="9.81" height="16.58"/><rect x="212.55" y="113.54" width="27.47" height="16.58"/><rect class="cls-5" x="193.14" y="38.6" width="49.71" height="7.85"/><rect x="218.16" y="53.11" width="16.25" height="2.88"/><rect x="218.16" y="53.11" width="16.25" height="2.88"/><rect x="218.16" y="58.86" width="16.25" height="2.88"/><rect x="218.16" y="64.62" width="16.25" height="2.88"/><rect class="cls-3" x="120.29" y="323.97" width="27.36" height="21.76"/><rect class="cls-6" x="114.03" y="317.18" width="28.98" height="23.08"/><rect class="cls-7" x="369.59" y="159.11" width="21.52" height="41.57"/><rect class="cls-8" x="373.49" y="174.38" width="14.09" height="6.24"/><rect class="cls-5" x="369.73" y="196.04" width="21.38" height="4.64"/><ellipse cx="380.53" cy="166.77" rx="4.21" ry="4.29"/><rect class="cls-8" x="373.4" y="183.29" width="14.09" height="16.72"/><rect class="cls-7" x="380.9" y="165.09" width="21.52" height="41.57"/><rect class="cls-8" x="384.79" y="180.35" width="14.09" height="6.24"/><rect class="cls-5" x="381.04" y="202.01" width="21.38" height="4.64"/><ellipse cx="391.84" cy="172.74" rx="4.21" ry="4.29"/><rect class="cls-8" x="384.7" y="189.26" width="14.09" height="16.72"/><polyline class="cls-8" points="384.7 189.25 398.79 205.98 384.7 205.98"/><line class="cls-8" x1="398.79" y1="189.26" x2="384.79" y2="205.47"/><rect class="cls-7" x="395.54" y="158.76" width="35.22" height="68.03"/><rect class="cls-8" x="402.42" y="182.62" width="23.05" height="10.21"/><rect class="cls-5" x="395.65" y="218.07" width="34.99" height="7.59"/><ellipse cx="413.95" cy="170.16" rx="6.88" ry="7.02"/><rect class="cls-8" x="402.27" y="197.19" width="4.79" height="27.37"/><rect class="cls-8" x="409.26" y="197.19" width="16.22" height="27.37"/><rect class="cls-9" x="146.31" y="94.54" width="61.17" height="11.76" transform="translate(278.22 -75.96) rotate(90.29)"/><line class="cls-9" x1="177.1" y1="79.02" x2="171.12" y2="78.99"/><line class="cls-9" x1="177.07" y1="85.25" x2="171.09" y2="85.22"/><line class="cls-9" x1="177.04" y1="91.48" x2="171.06" y2="91.45"/><line class="cls-9" x1="177.01" y1="97.71" x2="171.03" y2="97.68"/><line class="cls-9" x1="176.97" y1="103.94" x2="170.99" y2="103.91"/><line class="cls-9" x1="176.94" y1="110.17" x2="170.96" y2="110.14"/><line class="cls-9" x1="176.91" y1="115.99" x2="170.93" y2="115.96"/><line class="cls-9" x1="176.88" y1="121.82" x2="170.9" y2="121.79"/><line class="cls-9" x1="176.88" y1="121.82" x2="170.9" y2="121.79"/><line class="cls-10" x1="311.86" y1="370.18" x2="311.86" y2="370.18"/><polygon points="435.55 326.08 416.25 353.83 381.56 297.08 368.82 317.94 348.75 271.83 318.43 341.54 295.58 305.5 253.97 371.16 305.54 371.16 336.28 371.16 337.2 371.16 391.97 371.16 404.21 371.16 426.85 371.16 476.83 371.16 435.55 326.08"/><circle class="cls-11" cx="349.66" cy="253.31" r="4.59"/><circle class="cls-6" cx="302.91" cy="296.58" r="4.59"/><circle class="cls-1" cx="430.97" cy="316.91" r="4.59"/><line class="cls-8" x1="358.21" y1="260.17" x2="420.51" y2="310.19"/><line class="cls-8" x1="312.83" y1="290.14" x2="339.6" y2="263.36"/><rect class="cls-2" x="311.22" y="410.97" width="6.38" height="6.38"/><rect class="cls-2" x="317.6" y="410.97" width="6.38" height="6.38"/><rect class="cls-2" x="311.22" y="417.53" width="6.38" height="6.38"/><rect class="cls-2" x="317.6" y="417.53" width="6.38" height="6.38"/><rect class="cls-2" x="311.22" y="417.53" width="6.38" height="6.38"/><rect class="cls-2" x="317.6" y="417.53" width="6.38" height="6.38"/><rect class="cls-2" x="342.76" y="424" width="6.38" height="6.38"/><rect class="cls-2" x="349.14" y="424" width="6.38" height="6.38"/><rect class="cls-2" x="323.84" y="417.44" width="6.38" height="6.38"/><rect class="cls-2" x="330.22" y="417.44" width="6.38" height="6.38"/><rect class="cls-12" x="323.84" y="417.44" width="6.38" height="6.38"/><rect class="cls-2" x="330.22" y="417.44" width="6.38" height="6.38"/><rect class="cls-2" x="304.84" y="410.97" width="6.38" height="6.38"/><rect class="cls-2" x="298.46" y="410.97" width="6.38" height="6.38"/><rect class="cls-1" x="298.46" y="417.44" width="6.38" height="6.38"/><rect class="cls-2" x="323.91" y="424.09" width="6.38" height="6.38"/><rect class="cls-2" x="330.29" y="424.09" width="6.38" height="6.38"/><rect class="cls-2" x="323.91" y="430.65" width="6.38" height="6.38"/><rect class="cls-2" x="330.29" y="430.65" width="6.38" height="6.38"/><rect class="cls-2" x="323.91" y="430.65" width="6.38" height="6.38"/><rect class="cls-4" x="330.29" y="430.65" width="6.38" height="6.38"/><rect class="cls-11" x="336.52" y="424" width="6.38" height="6.38"/><rect class="cls-2" x="293.17" y="455.56" width="6.38" height="6.38"/><rect class="cls-2" x="336.52" y="430.56" width="6.38" height="6.38"/><rect class="cls-2" x="293.17" y="462.12" width="6.38" height="6.38"/><rect class="cls-2" x="336.52" y="430.56" width="6.38" height="6.38"/><rect class="cls-2" x="311.3" y="424.18" width="6.38" height="6.38"/><rect class="cls-2" x="299.55" y="462.12" width="6.38" height="6.38"/><rect class="cls-2" x="299.55" y="462.12" width="6.38" height="6.38"/><rect class="cls-4" x="311.3" y="430.83" width="6.38" height="6.38"/><rect class="cls-2" x="311.3" y="437.39" width="6.38" height="6.38"/><rect class="cls-2" x="311.3" y="437.39" width="6.38" height="6.38"/><rect class="cls-2" x="356.5" y="412.6" width="7.06" height="7.06" transform="translate(-56.1 776.15) rotate(-90)"/><rect class="cls-2" x="53.53" y="44.73" width="6.38" height="6.38"/><rect class="cls-2" x="59.91" y="44.73" width="6.38" height="6.38"/><rect class="cls-2" x="59.91" y="44.73" width="6.38" height="6.38"/><rect class="cls-2" x="66.14" y="38.09" width="6.38" height="6.38"/><rect class="cls-2" x="72.52" y="38.09" width="6.38" height="6.38"/><rect class="cls-2" x="66.14" y="44.65" width="6.38" height="6.38"/><rect class="cls-2" x="72.52" y="44.65" width="6.38" height="6.38"/><rect class="cls-2" x="66.14" y="44.65" width="6.38" height="6.38"/><rect class="cls-1" x="72.52" y="44.65" width="6.38" height="6.38"/><rect class="cls-2" x="66.22" y="51.29" width="6.38" height="6.38"/><rect class="cls-2" x="72.6" y="51.29" width="6.38" height="6.38"/><rect class="cls-2" x="66.22" y="57.85" width="6.38" height="6.38"/><rect class="cls-2" x="66.22" y="57.85" width="6.38" height="6.38"/><rect class="cls-6" x="78.83" y="51.2" width="6.38" height="6.38"/><rect class="cls-2" x="85.21" y="51.2" width="6.38" height="6.38"/><rect class="cls-2" x="78.83" y="57.76" width="6.38" height="6.38"/><rect class="cls-2" x="85.21" y="57.76" width="6.38" height="6.38"/><rect class="cls-2" x="78.83" y="57.76" width="6.38" height="6.38"/><rect class="cls-2" x="53.53" y="38.09" width="6.38" height="6.38"/><rect class="cls-2" x="59.91" y="38.09" width="6.38" height="6.38"/><rect class="cls-2" x="53.53" y="44.65" width="6.38" height="6.38"/><rect class="cls-2" x="53.53" y="51.29" width="6.38" height="6.38"/><rect class="cls-2" x="91.59" y="57.76" width="6.38" height="6.38"/><rect class="cls-2" x="91.59" y="57.76" width="6.38" height="6.38"/><rect class="cls-2" x="85.21" y="38" width="6.38" height="6.38"/><rect class="cls-2" x="85.21" y="44.56" width="6.38" height="6.38"/><rect class="cls-2" x="85.21" y="44.56" width="6.38" height="6.38"/><rect class="cls-2" x="111.27" y="57.76" width="6.38" height="6.38" transform="translate(175.41 -53.51) rotate(90)"/><rect class="cls-2" x="104.71" y="57.76" width="6.38" height="6.38" transform="translate(168.85 -46.95) rotate(90)"/><rect class="cls-2" x="104.71" y="64.14" width="6.38" height="6.38" transform="translate(175.24 -40.57) rotate(90)"/><rect class="cls-2" x="104.71" y="57.76" width="6.38" height="6.38" transform="translate(168.85 -46.95) rotate(90)"/><rect class="cls-2" x="104.71" y="57.84" width="6.38" height="6.38" transform="translate(168.93 -46.87) rotate(90)"/><rect class="cls-11" x="111.36" y="70.38" width="6.38" height="6.38" transform="translate(188.12 -40.98) rotate(90)"/><rect class="cls-2" x="111.36" y="76.76" width="6.38" height="6.38" transform="translate(194.5 -34.6) rotate(90)"/><rect class="cls-2" x="104.8" y="70.38" width="6.38" height="6.38" transform="translate(181.56 -34.42) rotate(90)"/><rect class="cls-2" x="104.8" y="76.76" width="6.38" height="6.38" transform="translate(187.94 -28.04) rotate(90)"/><rect class="cls-2" x="104.8" y="70.38" width="6.38" height="6.38" transform="translate(181.56 -34.42) rotate(90)"/><rect class="cls-12" x="104.8" y="76.76" width="6.38" height="6.38" transform="translate(187.94 -28.04) rotate(90)"/><rect class="cls-2" x="98.15" y="70.45" width="6.38" height="6.38" transform="translate(174.98 -27.7) rotate(90)"/><rect class="cls-2" x="98.15" y="76.83" width="6.38" height="6.38" transform="translate(181.36 -21.32) rotate(90)"/><rect class="cls-2" x="91.59" y="70.45" width="6.38" height="6.38" transform="translate(168.42 -21.14) rotate(90)"/><rect class="cls-2" x="91.59" y="76.83" width="6.38" height="6.38" transform="translate(174.8 -14.76) rotate(90)"/><rect class="cls-2" x="91.59" y="70.45" width="6.38" height="6.38" transform="translate(168.42 -21.14) rotate(90)"/><rect class="cls-2" x="91.59" y="76.83" width="6.38" height="6.38" transform="translate(174.8 -14.76) rotate(90)"/><rect class="cls-2" x="98.24" y="83.06" width="6.38" height="6.38" transform="translate(187.69 -15.18) rotate(90)"/><rect class="cls-2" x="98.24" y="89.44" width="6.38" height="6.38" transform="translate(194.07 -8.8) rotate(90)"/><rect class="cls-2" x="91.68" y="83.06" width="6.38" height="6.38" transform="translate(181.13 -8.62) rotate(90)"/><rect class="cls-2" x="91.68" y="89.44" width="6.38" height="6.38" transform="translate(187.51 -2.24) rotate(90)"/><rect class="cls-2" x="91.68" y="83.06" width="6.38" height="6.38" transform="translate(181.13 -8.62) rotate(90)"/><rect class="cls-2" x="98.06" y="57.84" width="6.38" height="6.38" transform="translate(162.28 -40.23) rotate(90)"/><rect class="cls-2" x="91.68" y="95.83" width="6.38" height="6.38" transform="translate(193.89 4.14) rotate(90)"/><rect class="cls-2" x="91.68" y="95.83" width="6.38" height="6.38" transform="translate(193.89 4.14) rotate(90)"/><rect class="cls-4" x="111.45" y="89.44" width="6.38" height="6.38" transform="translate(207.27 -22) rotate(90)"/><rect class="cls-2" x="104.89" y="89.44" width="6.38" height="6.38" transform="translate(200.71 -15.44) rotate(90)"/><rect class="cls-2" x="104.89" y="89.44" width="6.38" height="6.38" transform="translate(200.71 -15.44) rotate(90)"/><rect class="cls-1" x="419.07" y="73.89" width="6.27" height="6.38" transform="translate(499.29 -345.12) rotate(90)"/><rect class="cls-9" x="412.6" y="73.89" width="6.27" height="6.38" transform="translate(492.82 -338.65) rotate(90)"/><rect class="cls-9" x="406.13" y="73.89" width="6.27" height="6.38" transform="translate(486.35 -332.18) rotate(90)"/><rect class="cls-9" x="399.66" y="73.89" width="6.27" height="6.38" transform="translate(479.88 -325.71) rotate(90)"/><rect class="cls-9" x="406.13" y="80.17" width="6.27" height="6.38" transform="translate(492.62 -325.91) rotate(90)"/><rect class="cls-12" x="412.6" y="87.17" width="6.27" height="6.38" transform="translate(506.09 -325.38) rotate(90)"/><rect class="cls-9" x="433.4" y="73.61" width="7.06" height="6.94"/><rect class="cls-4" x="277.42" y="122.57" width="6.89" height="6.89" transform="translate(154.85 406.88) rotate(-90)"/><rect class="cls-2" x="284.41" y="122.57" width="6.89" height="6.89" transform="translate(161.84 413.87) rotate(-90)"/><rect class="cls-2" x="298.39" y="115.68" width="6.89" height="6.89" transform="translate(182.71 420.96) rotate(-90)"/><rect class="cls-2" x="298.39" y="122.57" width="6.89" height="6.89" transform="translate(175.81 427.85) rotate(-90)"/><rect class="cls-2" x="298.39" y="108.79" width="6.89" height="6.89" transform="translate(189.6 414.06) rotate(-90)"/><rect class="cls-11" x="305.28" y="108.79" width="6.89" height="6.89" transform="translate(196.49 420.96) rotate(-90)"/><rect x="411.79" y="236.17" width="2.79" height="14.48"/><polygon points="407.37 250.65 413.18 259.35 418.99 250.65 407.37 250.65"/></g><g id="greenblock"><rect class="cls-3" x="161.73" y="335.55" width="27.53" height="21.89"/><rect class="cls-1" x="155.44" y="328.72" width="29.16" height="23.22"/></g><g id="purpleblock"><rect class="cls-3" x="203.64" y="347.2" width="27.67" height="22.01"/><rect class="cls-11" x="197.32" y="340.33" width="29.31" height="23.34"/></g></svg>