<svg id="Layer_1" data-name="Layer 1" xmlns="http://www.w3.org/2000/svg" viewBox="0 0 100 100"><path d="M57.09,63.92,44.43,74.24s24.64,20.86,26,20.94c4.05.22,11.25-8.44,10.45-12.41C80.66,81.57,73.34,77.09,57.09,63.92Z"/><path d="M43.21,73.28,30.7,62.37S69.07,29.69,70.46,29.61C74.51,29.39,81.71,38,80.91,42,80.66,43.22,43.21,73.28,43.21,73.28Z"/><path d="M42.42,6.67C41.78,2.53,27,2.58,25.67,6.56c-.74,2.24-1.36,85.63,0,87.43,2.44,3.24,13.81,3.26,16.22,0,.45-.6.89-19.31.89-19.31L28.54,62.32,42.78,50S42.59,7.73,42.42,6.67Z"/></svg>