<?xml version="1.0" encoding="utf-8"?>
<!-- Generator: Adobe Illustrator 26.0.1, SVG Export Plug-In . SVG Version: 6.00 Build 0)  -->
<svg version="1.1" id="Layer_1" xmlns="http://www.w3.org/2000/svg" xmlns:xlink="http://www.w3.org/1999/xlink" x="0px" y="0px"
	 viewBox="0 0 200 50" style="enable-background:new 0 0 200 50;" xml:space="preserve">
<style type="text/css">
	.st0{fill:#020202;}
</style>
<g>
	<path class="st0" d="M26.28,24.07l-2.29,2.12v3.02h-2V13.77h2v9.91L30,18.18h2.41l-4.64,4.56l5.1,6.47h-2.46L26.28,24.07z"/>
	<path class="st0" d="M43.34,22.55v6.66h-1.89v-1.46c-0.67,1-1.89,1.58-3.62,1.58c-2.5,0-4.08-1.33-4.08-3.25
		c0-1.77,1.15-3.23,4.43-3.23h3.16v-0.4c0-1.69-0.98-2.66-2.96-2.66c-1.31,0-2.64,0.46-3.5,1.19l-0.83-1.5
		c1.14-0.92,2.79-1.42,4.56-1.42C41.63,18.08,43.34,19.54,43.34,22.55z M41.34,25.84V24.3h-3.08c-1.98,0-2.54,0.77-2.54,1.71
		c0,1.1,0.92,1.79,2.44,1.79C39.66,27.8,40.84,27.11,41.34,25.84z"/>
	<path class="st0" d="M53.24,28.57c-0.6,0.52-1.52,0.77-2.41,0.77c-2.23,0-3.5-1.23-3.5-3.46v-6.06h-1.87v-1.64h1.87v-2.41h2v2.41
		h3.16v1.64h-3.16v5.97c0,1.19,0.62,1.85,1.73,1.85c0.58,0,1.14-0.19,1.56-0.52L53.24,28.57z"/>
	<path class="st0" d="M66.13,22.87v6.35h-2v-6.12c0-2.16-1.08-3.23-2.98-3.23c-2.12,0-3.5,1.27-3.5,3.66v5.68h-2V13.77h2v5.97
		c0.83-1.06,2.21-1.67,3.89-1.67C64.23,18.08,66.13,19.62,66.13,22.87z"/>
	<path class="st0" d="M75.76,18.08v1.94c-0.17-0.02-0.31-0.02-0.46-0.02c-2.14,0-3.48,1.31-3.48,3.73v5.49h-2V18.18h1.91v1.85
		C72.45,18.75,73.82,18.08,75.76,18.08z"/>
	<path class="st0" d="M88.43,18.18l-5.35,12.13c-0.98,2.33-2.25,3.06-3.93,3.06c-1.06,0-2.14-0.35-2.83-1.02l0.85-1.5
		c0.54,0.52,1.23,0.81,1.98,0.81c0.96,0,1.56-0.44,2.1-1.71l0.35-0.77l-4.87-11.01h2.08l3.85,8.82l3.81-8.82H88.43z"/>
	<path class="st0" d="M100.77,22.87v6.35h-2v-6.12c0-2.16-1.08-3.23-2.98-3.23c-2.12,0-3.5,1.27-3.5,3.66v5.68h-2V18.18h1.91v1.67
		c0.81-1.12,2.23-1.77,3.98-1.77C98.88,18.08,100.77,19.62,100.77,22.87z"/>
	<path class="st0" d="M125.76,18.35l-4.12,10.86h-0.98L117,19.79l-3.68,9.43h-0.96l-4.12-10.86h1l3.62,9.7l3.7-9.7h0.9l3.68,9.68
		l3.66-9.68H125.76z"/>
	<path class="st0" d="M137.04,24.03h-9.35c0.1,2.58,2,4.33,4.6,4.33c1.37,0,2.64-0.5,3.48-1.52l0.6,0.69
		c-0.96,1.17-2.46,1.77-4.1,1.77c-3.29,0-5.6-2.29-5.6-5.52s2.23-5.52,5.2-5.52s5.18,2.25,5.18,5.47
		C137.06,23.82,137.04,23.93,137.04,24.03z M127.71,23.22h8.33c-0.15-2.35-1.85-4.04-4.16-4.04S127.88,20.85,127.71,23.22z"/>
	<path class="st0" d="M145.42,18.27v1.02c-0.08,0-0.17-0.02-0.25-0.02c-2.41,0-3.85,1.6-3.85,4.29v5.66h-1.04V18.35h1v2.37
		C141.95,19.14,143.38,18.27,145.42,18.27z"/>
	<path class="st0" d="M158.01,22.87v6.35h-1.04v-6.26c0-2.46-1.31-3.75-3.52-3.75c-2.56,0-4.12,1.64-4.12,4.23v5.79h-1.04V18.35h1
		v2.35c0.73-1.52,2.25-2.44,4.31-2.44C156.24,18.27,158.01,19.83,158.01,22.87z"/>
	<path class="st0" d="M171.5,24.03h-9.34c0.1,2.58,2,4.33,4.6,4.33c1.37,0,2.64-0.5,3.48-1.52l0.6,0.69
		c-0.96,1.17-2.46,1.77-4.1,1.77c-3.29,0-5.6-2.29-5.6-5.52s2.23-5.52,5.2-5.52c2.98,0,5.18,2.25,5.18,5.47
		C171.52,23.82,171.5,23.93,171.5,24.03z M162.17,23.22h8.33c-0.15-2.35-1.85-4.04-4.16-4.04
		C164.02,19.18,162.34,20.85,162.17,23.22z"/>
	<path class="st0" d="M179.88,18.27v1.02c-0.08,0-0.17-0.02-0.25-0.02c-2.41,0-3.85,1.6-3.85,4.29v5.66h-1.04V18.35h1v2.37
		C176.4,19.14,177.84,18.27,179.88,18.27z"/>
</g>
</svg>
