<svg id="Layer_1" data-name="Layer 1" xmlns="http://www.w3.org/2000/svg" viewBox="0 0 200 50"><defs><style>.cls-1{fill:#020202;}</style></defs><path class="cls-1" d="M26.28,24.07,24,26.19v3H22V13.77h2v9.91l6-5.5h2.41l-4.64,4.56,5.1,6.47H30.41Z"/><path class="cls-1" d="M43.34,22.55v6.66H41.45V27.75a4.09,4.09,0,0,1-3.62,1.58c-2.5,0-4.08-1.33-4.08-3.25,0-1.77,1.15-3.23,4.43-3.23h3.16v-.4c0-1.69-1-2.66-3-2.66A5.6,5.6,0,0,0,34.88,21l-.83-1.5a7.32,7.32,0,0,1,4.56-1.42C41.63,18.08,43.34,19.54,43.34,22.55Zm-2,3.29V24.3H38.26c-2,0-2.54.77-2.54,1.71,0,1.1.92,1.79,2.44,1.79A3.19,3.19,0,0,0,41.34,25.84Z"/><path class="cls-1" d="M53.24,28.57a3.76,3.76,0,0,1-2.41.77,3.15,3.15,0,0,1-3.5-3.46V19.82H45.46V18.18h1.87V15.77h2v2.41h3.16v1.64H49.33v6a1.62,1.62,0,0,0,1.73,1.85,2.55,2.55,0,0,0,1.56-.52Z"/><path class="cls-1" d="M66.13,22.87v6.35h-2V23.1c0-2.16-1.08-3.23-3-3.23-2.12,0-3.5,1.27-3.5,3.66v5.68h-2V13.77h2v6a4.79,4.79,0,0,1,3.89-1.67C64.23,18.08,66.13,19.62,66.13,22.87Z"/><path class="cls-1" d="M75.76,18.08V20a3.7,3.7,0,0,0-.46,0c-2.14,0-3.48,1.31-3.48,3.73v5.49h-2v-11h1.91V20C72.45,18.75,73.82,18.08,75.76,18.08Z"/><path class="cls-1" d="M88.43,18.18,83.08,30.31c-1,2.33-2.25,3.06-3.93,3.06a4.13,4.13,0,0,1-2.83-1l.85-1.5a2.83,2.83,0,0,0,2,.81c1,0,1.56-.44,2.1-1.71l.35-.77-4.87-11h2.08L82.66,27l3.81-8.82h2Z"/><path class="cls-1" d="M100.77,22.87v6.35h-2V23.1c0-2.16-1.08-3.23-3-3.23-2.12,0-3.5,1.27-3.5,3.66v5.68h-2v-11H92.2v1.67a4.74,4.74,0,0,1,4-1.77C98.88,18.08,100.77,19.62,100.77,22.87Z"/><path class="cls-1" d="M125.76,18.35l-4.12,10.86h-1L117,19.79l-3.68,9.43h-1l-4.12-10.86h1l3.62,9.7,3.7-9.7h.9L121.14,28l3.66-9.68h1Z"/><path class="cls-1" d="M137,24h-9.35a4.65,4.65,0,0,0,8.08,2.81l.6.69a5.2,5.2,0,0,1-4.1,1.77,5.34,5.34,0,0,1-5.6-5.52,5.2,5.2,0,0,1,5.2-5.52,5.15,5.15,0,0,1,5.18,5.47C137.06,23.82,137,23.93,137,24Zm-9.33-.81H136a4.17,4.17,0,0,0-8.33,0Z"/><path class="cls-1" d="M145.42,18.27v1l-.25,0c-2.41,0-3.85,1.6-3.85,4.29v5.66h-1V18.35h1v2.37A4.12,4.12,0,0,1,145.42,18.27Z"/><path class="cls-1" d="M158,22.87v6.35h-1V23c0-2.46-1.31-3.75-3.52-3.75a3.87,3.87,0,0,0-4.12,4.23v5.79h-1V18.35h1V20.7a4.49,4.49,0,0,1,4.31-2.44C156.24,18.27,158,19.83,158,22.87Z"/><path class="cls-1" d="M171.5,24h-9.34a4.65,4.65,0,0,0,8.08,2.81l.6.69a5.2,5.2,0,0,1-4.1,1.77,5.34,5.34,0,0,1-5.6-5.52,5.2,5.2,0,0,1,5.2-5.52,5.14,5.14,0,0,1,5.18,5.47C171.52,23.82,171.5,23.93,171.5,24Zm-9.33-.81h8.33a4.17,4.17,0,0,0-8.33,0Z"/><path class="cls-1" d="M179.88,18.27v1l-.25,0c-2.41,0-3.85,1.6-3.85,4.29v5.66h-1V18.35h1v2.37A4.12,4.12,0,0,1,179.88,18.27Z"/></svg>