<svg id="Layer_1" data-name="Layer 1" xmlns="http://www.w3.org/2000/svg" viewBox="0 0 100 50"><defs><style>.cls-1{fill:#231f20;}</style></defs><path class="cls-1" d="M25.61,34.62l-3.47,3.43v6.33H14.93V5.25h7.21V29.49l10.55-10h8.6L30.93,30.05,42.21,44.38H33.47Z"/><path class="cls-1" d="M69.63,19.45V44.38H62.74V41.51Q60.06,44.75,55,44.75a12.92,12.92,0,0,1-6.36-1.57,11.33,11.33,0,0,1-4.46-4.49,13.65,13.65,0,0,1-1.62-6.75,13.65,13.65,0,0,1,1.62-6.75,11.31,11.31,0,0,1,4.46-4.48A12.92,12.92,0,0,1,55,19.14a9.46,9.46,0,0,1,7.44,3V19.51ZM60.75,37a6.94,6.94,0,0,0,1.8-5,6.91,6.91,0,0,0-1.8-5,6,6,0,0,0-4.53-1.88,6.08,6.08,0,0,0-4.58,1.88,6.91,6.91,0,0,0-1.8,5,6.94,6.94,0,0,0,1.8,5,6.08,6.08,0,0,0,4.58,1.87A6,6,0,0,0,60.75,37Z"/><path class="cls-1" d="M91.26,43.18a7.47,7.47,0,0,1-2.61,1.18,13.07,13.07,0,0,1-3.21.39q-4.48,0-6.89-2.27t-2.4-6.65L75.64,9l7.72-.12V20.06h6.15v5.55H83.36V35.73a3.48,3.48,0,0,0,.78,2.43,2.94,2.94,0,0,0,2.27.86,4.94,4.94,0,0,0,3-.93Z"/></svg>