<?xml version="1.0" encoding="utf-8"?>
<!-- Generator: Adobe Illustrator 26.0.2, SVG Export Plug-In . SVG Version: 6.00 Build 0)  -->
<svg version="1.1" id="Layer_1" xmlns="http://www.w3.org/2000/svg" xmlns:xlink="http://www.w3.org/1999/xlink" x="0px" y="0px"
	 viewBox="0 0 100 50" style="enable-background:new 0 0 100 50;" xml:space="preserve">
<style type="text/css">
	.st0{fill:#020202;}
	.st1{fill:#231F20;}
</style>
<path class="st1" d="M22.5,34.6L19,38v6.3h-7.2V5.3H19v24.2l10.5-10h8.6L27.8,30l11.3,14.3h-8.7L22.5,34.6z"/>
<path class="st1" d="M66.5,19.4v24.9h-6.9v-2.9c-1.8,2.2-4.4,3.2-7.8,3.2c-2.3,0-4.5-0.5-6.4-1.6c-1.9-1-3.4-2.5-4.5-4.5
	c-1.1-1.9-1.6-4.2-1.6-6.8c0-2.6,0.5-4.8,1.6-6.8c1.1-1.9,2.6-3.4,4.5-4.5c1.9-1,4-1.6,6.4-1.6c3.2,0,5.7,1,7.4,3v-2.6L66.5,19.4z
	 M57.7,37c1.2-1.2,1.8-2.9,1.8-5c0-2.1-0.6-3.8-1.8-5c-1.2-1.2-2.7-1.9-4.5-1.9c-1.8,0-3.4,0.6-4.6,1.9c-1.2,1.2-1.8,2.9-1.8,5
	c0,2.1,0.6,3.8,1.8,5c1.2,1.2,2.7,1.9,4.6,1.9C54.9,38.8,56.4,38.2,57.7,37z"/>
<path class="st1" d="M88.2,43.2c-0.7,0.5-1.6,0.9-2.6,1.2c-1,0.3-2.1,0.4-3.2,0.4c-3,0-5.3-0.8-6.9-2.3C73.8,41,73,38.8,73,35.8
	L72.5,9l7.7-0.1v11.2h6.1v5.5h-6.1v10.1c0,1,0.3,1.9,0.8,2.4c0.5,0.6,1.3,0.9,2.3,0.9c1.1,0,2.1-0.3,3-0.9L88.2,43.2z"/>
</svg>
