<?xml version="1.0" encoding="utf-8"?>
<!-- Generator: Adobe Illustrator 26.0.2, SVG Export Plug-In . SVG Version: 6.00 Build 0)  -->
<svg version="1.1" xmlns="http://www.w3.org/2000/svg" xmlns:xlink="http://www.w3.org/1999/xlink" x="0px" y="0px"
	 viewBox="0 0 300 400" style="enable-background:new 0 0 300 400;" xml:space="preserve">
<style type="text/css">
	.st0{fill:#EFE8CC;}
	.st1{fill:#FFFFFF;stroke:#000000;stroke-miterlimit:10;}
	.st2{stroke:#000000;stroke-miterlimit:10;}
	.st3{fill:#F9D3B0;stroke:#020202;stroke-miterlimit:10;}
	.st4{fill:#FFFFFF;stroke:#020202;stroke-miterlimit:10;}
	.st5{fill:none;stroke:#000000;stroke-miterlimit:10;}
	.st6{fill:#F6974C;stroke:#020202;stroke-miterlimit:10;}
	.st7{fill:#F2693C;stroke:#020202;stroke-miterlimit:10;}
	.st8{fill:#009F6C;stroke:#020202;stroke-miterlimit:10;}
	.st9{fill:#5EA130;stroke:#020202;stroke-miterlimit:10;}
	.st10{fill:#D2E13D;stroke:#020202;stroke-miterlimit:10;}
	.st11{fill:#D4AAF9;stroke:#020202;stroke-miterlimit:10;}
	.st12{fill:#070707;stroke:#000000;stroke-miterlimit:10;}
</style>
<g id="Layer_1">
	<path class="st0" d="M155.6,353.5c0.2,6.6-13.8,20.2-31,20.6S93.2,361.6,93.1,355c-0.2-6.6,13.7-12.2,31-12.6
		C141.3,342,155.4,347,155.6,353.5z"/>
	<polygon class="st1" points="126.8,269.4 110.4,274.4 114.3,331.7 121.6,330.9 	"/>
	<polygon class="st1" points="147.8,268.1 131.5,273.1 133.1,329 141.2,329.6 	"/>
	<path class="st2" d="M169.5,158.9c11.5-19.7,14.2-24.3,25.8-44l6.7-10.6c0,0.1,3.3-6.5,3.3-6.4c1.5-2.1-1.8-3-4.4-3
		c-2.6,0-4.6,2-6.3,3.9c-7.9,8.7-15.9,17.3-23.8,26L169.5,158.9z"/>
	<path d="M109.1,176.9c-7.1,42.3-10.1,86.3-8.7,128.5c14.8,14.5,34.6,10.5,50.3-11c4.6-39.6,6-79.8,4.2-118.4"/>
	<path class="st3" d="M167.1,208.1c-2.2,7.2-3.8,9.4-13.7,14c-5,2.3-14.6-0.9-17.5-0.1c-12.1,3.4-18.5-1.3-18.5-1.3
		s-8.6,5.1-15.8-1.3c-4.4-3.9-3.3-9.5-6.1-16.3C77.2,160.3,81.8,106,113,71.2c4.3-4.8,13.5-8.4,19.8-9.6c8.9-1.7,17.5,3.9,23.7,10.5
		c12.6,13.3,19.3,31.3,21.9,49.5c2.6,18.1,1.4,36.6-0.2,54.8C176.7,193.1,177.9,203.7,167.1,208.1z"/>
	<path class="st4" d="M196,97.8c1.8-4.4,1-2.2,2.7-6.6c0.5-1.1,1.8-5.7,2.7-6.3c1.1-0.9,1.9,4.8,3.5,5.3c3.9,1.2,7.7-4.8,9.1-1.8
		c1,2.1,0,3.7-1.2,6.4c-1.1,2.7-3,4.9-4.9,6.6C204.3,104.5,200.2,106,196,97.8z"/>
	<path class="st5" d="M116.3,68.5c-28.5,38.5,0.8,61.2-15.6,87.9c-13.1,21.4,19.4,49.4,6,60.6"/>
	<path class="st5" d="M141.5,62.4c14.1,41.4,9.2,62.8,0.1,84.9c-18.3,44,1.8,33.3,5,48.4"/>
	
		<rect x="257.3" y="97.9" transform="matrix(0.9959 9.015454e-02 -9.015454e-02 0.9959 10.3774 -23.2589)" class="st6" width="10.7" height="10.7"/>
	
		<rect x="258.6" y="116.3" transform="matrix(0.9978 6.612629e-02 -6.612629e-02 0.9978 8.6227 -17.1861)" class="st7" width="10.7" height="10.7"/>
	
		<rect x="242.9" y="118.6" transform="matrix(0.9964 -8.438487e-02 8.438487e-02 0.9964 -9.5775 21.3879)" class="st6" width="10.7" height="10.7"/>
	
		<rect x="243.3" y="135.4" transform="matrix(0.9997 -2.356245e-02 2.356245e-02 0.9997 -3.2463 5.8969)" class="st7" width="10.7" height="10.7"/>
	
		<rect x="56.6" y="48.7" transform="matrix(0.9997 -2.356245e-02 2.356245e-02 0.9997 -1.2561 1.4742)" class="st8" width="10.7" height="10.7"/>
	
		<rect x="55.3" y="28.8" transform="matrix(0.9981 6.202279e-02 -6.202279e-02 0.9981 2.236 -3.6938)" class="st9" width="10.7" height="10.7"/>
	
		<rect x="37.8" y="30.1" transform="matrix(0.9997 -2.356245e-02 2.356245e-02 0.9997 -0.8234 1.0259)" class="st8" width="10.7" height="10.7"/>
	
		<rect x="204.9" y="76.9" transform="matrix(0.9901 -0.1401 0.1401 0.9901 -9.4534 30.2708)" class="st10" width="10.7" height="10.7"/>
	
		<rect x="202.7" y="47.6" transform="matrix(0.9969 -7.869352e-02 7.869352e-02 0.9969 -3.5185 16.5354)" class="st10" width="10.7" height="10.7"/>
	
		<rect x="237.2" y="101" transform="matrix(0.9988 4.796393e-02 -4.796393e-02 0.9988 5.3792 -11.512)" class="st7" width="10.7" height="10.7"/>
	
		<rect x="186" y="36.3" transform="matrix(0.999 4.361762e-02 -4.361762e-02 0.999 1.9982 -8.3051)" class="st10" width="10.7" height="10.7"/>
	
		<rect x="73" y="38.4" transform="matrix(0.9981 6.202279e-02 -6.202279e-02 0.9981 2.8648 -4.775)" class="st8" width="10.7" height="10.7"/>
	<path class="st5" d="M132.8,61.6c-19.3,22.8-19.7,32-12.4,63.3c6.4,27.4-10.6,86.5,5.1,82.8"/>
	<path class="st5" d="M163.7,81.3c11.4,32.7-5.1,39.4-1.2,64c7.8,48.5-5.9,76.8-12.9,68.2"/>
	
		<rect x="46.1" y="69.5" transform="matrix(0.9997 -2.356245e-02 2.356245e-02 0.9997 -1.7486 1.2337)" class="st9" width="10.7" height="10.7"/>
	<polygon class="st11" points="113.8,324.1 122.1,323.7 121.6,330.9 114.3,331.7 	"/>
	<path class="st12" d="M117.9,327.4c3.2-0.6,5.9,4.2,6,10.8c0.1,6.6,2,13.5-5.6,13.2c-3.3-0.2-13.3,3.1-9.2-11.5
		C112.1,329.3,114.7,328,117.9,327.4z"/>
	<polygon class="st11" points="133,323.6 142,323.2 141.5,330.4 133.6,331.2 	"/>
	<path class="st12" d="M137.7,326.7c3.2-0.6,5.9,4.2,6,10.8c0.1,6.6,2,13.5-5.6,13.2c-3.3-0.2-13.3,3.1-9.2-11.5
		C131.9,328.6,134.5,327.4,137.7,326.7z"/>
</g>
<g id="teal_block">
	
		<rect x="39.2" y="47.9" transform="matrix(0.9997 -2.356245e-02 2.356245e-02 0.9997 -1.2416 1.0636)" class="st8" width="10.7" height="10.7"/>
</g>
<g id="green_block">
	
		<rect x="186.1" y="52.2" transform="matrix(0.9957 -9.276344e-02 9.276344e-02 0.9957 -4.5151 18.0075)" class="st10" width="10.7" height="10.7"/>
</g>
</svg>
